<?xml version="1.0" encoding="UTF-8"?>
<svg id="Calque_2" data-name="Calque 2" xmlns="http://www.w3.org/2000/svg" viewBox="0 0 714.47 1074.82">
  <defs>
    <style>
      .cls-1 {
        fill: #ef9bb3;
      }

      .cls-2 {
        stroke: #1d1d1b;
        stroke-width: 10px;
      }

      .cls-2, .cls-3, .cls-4 {
        fill: none;
        stroke-miterlimit: 10;
      }

      .cls-5 {
        fill: #fff4da;
      }

      .cls-3 {
        stroke: #000;
        stroke-width: 5px;
      }

      .cls-4 {
        stroke: #fff4da;
        stroke-width: 7px;
      }
    </style>
  </defs>
  <g id="Calque_1-2" data-name="Calque 1">
    <g id="rose">
      <path d="M182.65,77.81s287.09-104.58,452.96,121.95c69.53,94.95,94.77,215.72,68.94,330.54-13.34,59.3-47.44,125.66-102.54,182.51,0,0,23.24,43.66-.74,86.08,0,0,91.38,89.13-15.59,144.72-3.98,2.07-7.93,4.2-11.84,6.37-31.7,17.6-187.95,94.93-394.81,37.75l3.61-909.93Z"/>
      <path class="cls-5" d="M562.12,805.72c44.27-66.4,0-94.07,0-94.07-111.88,82.39-214.37,95.04-291.57,85.33-30.49,2.85-144.1-65.13-144.51-53.09-1.05,31.5,1.88,168.81,1.69,200.17-.09,14.91,12.26,11.39,112.05,30.94,20.8,4.07,41.92,6.33,63.11,6.72,135.47,2.43,194.08-30.33,229.71-43.2,29.29-10.58,62.77-31.69,70.09-44.27,25.77-44.31-40.58-88.53-40.58-88.53Z"/>
      <path class="cls-1" d="M276.98,798.82c3.18.28,6.36.65,9.53,1.1,22.7,3.17,143.77,15.01,255.44-73,0,0,185.68-133.81,124.93-375.65-.59-2.34-1.14-4.68-1.63-7.04-4.33-20.75-37.86-153-200.97-230.21,0,0-134.24-56.8-232.89-16.92,0,0-84.12,33.48-125.73,75.08s-27.04,310.55-27.04,310.55l10.03,138.72c4.84,66.86,46.28,125.55,107.66,152.48l23.54,10.33c18,7.9,37.16,12.8,56.74,14.53l.37.03Z"/>
      <path class="cls-4" d="M321.04,83.53c-16.82,0-33.37,1.16-49.57,3.4-43.57,7.48-94.67,26.88-92.16,40.87,5,32-20.46,69.36-24.46,99.36-8,49-54.83,118.06-68.83,165.06,11,68,55.89,120.94,56.89,188.94,0,9-12.35,57.02-13.35,66.02,0,57,47.55,56.08,43.55,113.08-.69,10.63,58.3,33.01,97.4,37.22,16.51,2.33,33.37,3.53,50.52,3.53,198.13,0,358.74-160.61,358.74-358.74S519.16,83.53,321.04,83.53Z"/>
      <path class="cls-5" d="M167.79,741.45c-24.87-13.51-3.8-53.08-4.23-81.25-.13-8.27,69.41-23.7,110.07-28.22,149.64-18.19,262.66,61.23,262.66,61.23-91.13,74.42-185.2,86.9-258.5,76.54-6.82-.96-13.56-2.32-20.24-3.97-22.65-5.58-82.98-20.65-89.76-24.33Z"/>
      <path class="cls-5" d="M292.83,139.88s112.63,19.77,197.35,73.78l36.89-18.44s-127.27-79.31-234.24-55.33Z"/>
      <path class="cls-5" d="M511.33,238.98s16.37,14.12,25.69,36.47l43.2-13.36s-10.66-34.19-28.05-41.8l-40.84,18.7Z"/>
      <path class="cls-5" d="M619.92,532.83s-16.86-150-67.03-228.79l36.75-9.99s65.42,134.93,30.27,238.78Z"/>
      <path class="cls-3" d="M142.79,145.25c53.56-32.59,112.04-57.52,179.32-57.52,195.49,0,353.97,158.48,353.97,353.97s-158.48,353.97-353.97,353.97c-65.87,0-127.53-17.99-180.35-49.33"/>
      <g>
        <path class="cls-5" d="M200.19,687.39c.21,16.06.52,32.06.69,48.05,6.57-19.61,3.72-36.33-.69-48.05Z"/>
        <path d="M186.77,440.23c10.38,64.2,9.44,129.34,10.38,193.53,0,4.87,1.24,10.06,2.12,15.2l-.35-90.64c.7-5.97-2.11-8.08-2.11-8.08,2.11-1.4,2.46-7.38,2.46-7.38l-.35-73.41c.35-5.62-1.76-7.73-1.76-7.73.53-.63.99-1.64,1.38-2.75,1.03-2.9,1.43-5.99,1.41-9.07l-.33-55.27c.35-3.51-2.11-5.97-2.11-5.97,2.46-4.57,2.11-7.02,2.11-7.02l.35-91.32c0-4.92-3.16-7.73-3.16-7.73,2.81-1.05,2.81-8.08,2.81-8.08l-.06-13.19c-3.44,13.93-8.04,27.6-9.96,42-7.55,46.26,10.38,92.52-2.83,136.89Z"/>
        <path d="M202.41,878.4c.76-4.77.66-9.68-.72-14.31-.98-3.29-2.06-5.46-2.06-5.46l-.17-44.58c-.13,2.21-.26,4.43-.42,6.64-4.39,67.31-4.81,134.04-4.78,200.65.89-1.99,1.71-3.96,2.46-5.91,5.91-15.46,8.05-32.11,7.13-48.64-3.49-63.23-2.39-82.52-1.45-88.4Z"/>
        <path d="M199.04,820.69c.16-2.22.28-4.43.42-6.64l-.18-47.8c-.7-8.43-6.32-13.7-6.32-13.7.03-.06.07-.12.1-.18,5.25-8.9,7.8-19.13,7.66-29.46-.12-8.39-.26-16.78-.39-25.19-.14-9.62-3.19-19-8.9-26.76-.8-1.09-1.29-1.66-1.29-1.66,10.89-7.38,9.13-20.02,9.13-20.02v-.33c-.88-5.14-2.12-10.32-2.12-15.2-.94-64.2,0-129.34-10.38-193.53,13.22-44.37-4.72-90.63,2.83-136.89,1.92-14.4,6.52-28.07,9.96-42l-.29-60.57c0-4.21-2.46-7.73-2.46-7.73.53-.53.99-1.37,1.38-2.29.27-.65.5-1.31.69-1.98-2.21-26.3-1.73-52.39-1.73-78.96,0,26.58-.48,52.66,1.73,78.96.52-1.84.73-3.76.71-5.68l-.67-57.48c-.35-2.46-1.76-5.27-1.76-5.27,3.51-3.16,2.46-7.73,2.46-7.73V18.84c-.78-11.48-8.24-16.06-14.75-17.87-4.41-1.22-9.08-1.24-13.56-.33C95.13,16.18,45.12,8.69,32.23,6.19c-3.97-.77-8.08-.69-11.96.45C5.82,10.9,5.05,25.51,5.05,25.51v67.08c-1.05,38.64,30.56,55.14,30.56,55.14-30.21,12.64-29.85,48.82-29.85,48.82v74.81c-.7,6.32,4.21,9.83,4.21,9.83-3.86,4.57-4.92,12.29-4.92,12.29v72c-.7,36.18,30.91,49.17,30.91,49.17-32.66,15.45-30.91,53.04-30.91,53.04v68.84c-1.4,5.27,3.16,10.89,3.16,10.89-3.51,2.46-3.86,10.19-3.86,10.19v91.67c-1.4,20.72,18.26,23.18,18.26,23.18-18.26,24.23-17.91,63.57-17.91,63.57l-.35,125.74c-5.31,3.14-4.48,13.75-3.44,20.07.77,4.69,1.26,9.4,1.29,14.15.07,10.42-.24,32.04-2.06,76.06-3.16,76.57,52.68,94.13,52.68,94.13,62.52,21.07,103.61-3.16,103.61-3.16,19.35-10.25,30.92-26.32,37.84-41.7-.03-66.61.39-133.35,4.78-200.65Z"/>
        <g>
          <path class="cls-1" d="M106.74,1054.74c-65.13,0-86.42-32.82-86.42-79.49,0-25.65,5.9-58.98.77-102.57h50.52c-7.44,22.05-10.77,40.26-10.77,57.19,0,30.51,11.54,38.46,32.05,38.46,15.13,0,25.39-2.82,25.39-11.54,0-11.28-11.79-12.57-37.18-8.21l-1.54-75.9c30.51,4.87,73.6,4.87,104.11,0-5.13,43.59.77,79.5.77,102.57,0,46.67-28.98,79.49-77.7,79.49Z"/>
          <path class="cls-1" d="M96.48,852.94c-25.64,0-49.24,2.05-71.03,5.9v-121.55c0-42.31,17.18-69.75,46.67-69.75,25.13,0,41.03,21.28,41.03,51.54,0,4.36-.51,8.46-.51,12.31,0,2.57,1.54,4.1,3.59,4.1,7.95,0,10.77-11.8,10.77-21.03,0-18.21-7.95-36.67-16.15-46.41v-1.03c7.95-3.08,17.18-4.62,25.9-4.62,26.67,0,47.7,20.52,47.7,49.24,0,26.93-10.26,42.31-45.13,48.72-6.67,1.28-9.74,3.85-9.74,7.44,0,3.07,2.56,4.87,6.41,4.87,9.23,0,25.39-1.8,43.34-4.87v91.03c-29.49-3.85-57.19-5.9-82.83-5.9ZM103.4,761.65c0-7.95-7.44-12.82-17.18-12.82-11.8,0-21.8,4.36-21.8,12.31s10,12.57,21.8,12.57c9.74,0,17.18-3.85,17.18-12.05Z"/>
          <path class="cls-1" d="M179.31,556.53v96.16c-58.98-7.69-110.27-7.69-153.86,0v-96.16c43.59,7.69,94.88,7.69,153.86,0Z"/>
          <path class="cls-1" d="M25.45,269.87v-66.16c0-37.7,24.87-44.62,57.7-46.93,8.46-.51,17.44-1.79,17.44-7.95,0-6.67-8.97-8.46-17.44-9.49-32.82-4.62-57.7-11.8-57.7-49.49V26.26c43.08,6.92,110.27,5.13,153.86-6.16v93.6c-34.88-7.18-89.75-15.13-89.75,1.02,0,13.85,53.59,11.03,89.75,13.08v58.47c-36.16,2.05-89.75-.77-89.75,13.08,0,16.15,54.88,8.2,89.75,1.03v75.65c-43.59-11.28-110.78-13.08-153.86-6.15Z"/>
          <path class="cls-1" d="M179.31,475.84c-14.79,4.09-28.53,2.35-28.53,2.35l-10.27-8.51-.64,10.26c-9.63,3.25-7.2,1.94-7.2,1.94l-8.99-7.01-6.74,9.26c-15.73,6.01-37.55-2.5-37.55-2.5,0,0,13.8-.75,35.3-29.78,14.76-19.92,34.63-28.5,45.64-31.92,3.7-6.98,8.3-10.07,8.3-10.07h0s-26.1-1.81-50.4-21.26c-8.86-7.09-15.84-10.86-21.15-12.79l-12.36-1.53c-.11.03-.21.06-.3.09-.27.07-.47.15-.58.2h0s-.06.03-.08.04c0,0-.03.01-.03.01,0,0-.02,0-.02,0h.02c.12-.09.78-.54,1.82-1.23h-.2s1.16-.72,2.97-1.77c5.8-3.62,15.77-9.29,22.25-9.96l1.78.72.62.12,10.64,4.42.23.14,1.44.59,2.56-9.48s20.55-10.04,51.48-10.42v-59.46c-43.59,11.29-110.78,13.08-153.86,6.16v63.6c0,37.7,24.87,44.88,57.7,49.49,8.46,1.03,17.44,2.82,17.44,9.49,0,6.16-8.97,7.44-17.44,7.95-32.82,2.31-57.7,9.23-57.7,46.93v66.16c43.08-6.92,110.27-5.13,153.86,6.15v-68.39Z"/>
        </g>
      </g>
      <path class="cls-2" d="M184.42,846.39s191.94,88.45,394.38-51.42"/>
    </g>
  </g>
</svg>