<?xml version="1.0" encoding="UTF-8"?>
<svg id="Calque_2" data-name="Calque 2" xmlns="http://www.w3.org/2000/svg" xmlns:xlink="http://www.w3.org/1999/xlink" viewBox="0 0 1928.68 1088.48">
  <defs>
    <style>
      .cls-1 {
        fill: url(#Dégradé_sans_nom_6);
      }

      .cls-2 {
        fill: url(#Dégradé_sans_nom_5);
      }

      .cls-3 {
        fill: url(#Dégradé_sans_nom_6-5);
      }

      .cls-4 {
        fill: url(#Dégradé_sans_nom_6-7);
      }

      .cls-5 {
        fill: url(#Dégradé_sans_nom_6-6);
      }

      .cls-6 {
        fill: url(#Dégradé_sans_nom_6-3);
      }

      .cls-7 {
        fill: url(#Dégradé_sans_nom_6-2);
      }

      .cls-8 {
        fill: url(#Dégradé_sans_nom_6-4);
      }

      .cls-9 {
        fill: #fff4da;
      }

      .cls-10 {
        fill: url(#Dégradé_sans_nom_77);
      }

      .cls-11 {
        fill: url(#Dégradé_sans_nom_76);
      }

      .cls-12 {
        fill: url(#Dégradé_sans_nom_90);
      }

      .cls-13 {
        fill: url(#Dégradé_sans_nom_89);
      }
    </style>
    <linearGradient id="Dégradé_sans_nom_76" data-name="Dégradé sans nom 76" x1="961.18" y1="1512.19" x2="961.18" y2="-395.2" gradientUnits="userSpaceOnUse">
      <stop offset=".22" stop-color="#ef9bb3"/>
      <stop offset=".33" stop-color="#ee99af"/>
      <stop offset=".41" stop-color="#ed95a5"/>
      <stop offset=".49" stop-color="#ec8d94"/>
      <stop offset=".56" stop-color="#e9827c"/>
      <stop offset=".63" stop-color="#e6755d"/>
      <stop offset=".69" stop-color="#e46840"/>
      <stop offset=".93" stop-color="#34170e"/>
      <stop offset="1" stop-color="#000"/>
    </linearGradient>
    <linearGradient id="Dégradé_sans_nom_77" data-name="Dégradé sans nom 77" x1="961.76" y1="1395.22" x2="961.76" y2="6.82" gradientUnits="userSpaceOnUse">
      <stop offset=".22" stop-color="#ef9bb3"/>
      <stop offset=".29" stop-color="#ee99af"/>
      <stop offset=".35" stop-color="#ed95a5"/>
      <stop offset=".4" stop-color="#ec8d94"/>
      <stop offset=".45" stop-color="#e9827c"/>
      <stop offset=".5" stop-color="#e6755d"/>
      <stop offset=".54" stop-color="#e46840"/>
      <stop offset=".9" stop-color="#34170e"/>
      <stop offset="1" stop-color="#000"/>
    </linearGradient>
    <linearGradient id="Dégradé_sans_nom_90" data-name="Dégradé sans nom 90" x1="960.73" y1="1397.66" x2="960.73" y2="-2.24" gradientUnits="userSpaceOnUse">
      <stop offset=".06" stop-color="#ef9bb3"/>
      <stop offset=".14" stop-color="#ee99af"/>
      <stop offset=".2" stop-color="#ed95a5"/>
      <stop offset=".27" stop-color="#ec8d94"/>
      <stop offset=".32" stop-color="#e9827c"/>
      <stop offset=".38" stop-color="#e6755d"/>
      <stop offset=".42" stop-color="#e46840"/>
      <stop offset=".67" stop-color="#34170e"/>
      <stop offset=".74" stop-color="#000"/>
    </linearGradient>
    <linearGradient id="Dégradé_sans_nom_6" data-name="Dégradé sans nom 6" x1="1136.8" y1="1025.73" x2="1136.8" y2="683.72" gradientUnits="userSpaceOnUse">
      <stop offset="0" stop-color="#ef9bb3"/>
      <stop offset=".11" stop-color="#e98179"/>
      <stop offset=".19" stop-color="#e56f50"/>
      <stop offset=".24" stop-color="#e46840"/>
      <stop offset=".24" stop-color="#e2673f"/>
      <stop offset=".32" stop-color="#a64c2e"/>
      <stop offset=".4" stop-color="#733420"/>
      <stop offset=".47" stop-color="#4a2114"/>
      <stop offset=".54" stop-color="#29130b"/>
      <stop offset=".61" stop-color="#120805"/>
      <stop offset=".68" stop-color="#040201"/>
      <stop offset=".74" stop-color="#000"/>
    </linearGradient>
    <linearGradient id="Dégradé_sans_nom_6-2" data-name="Dégradé sans nom 6" x1="1210.1" y1="1059.65" x2="1210.1" y2="801.42" xlink:href="#Dégradé_sans_nom_6"/>
    <linearGradient id="Dégradé_sans_nom_6-3" data-name="Dégradé sans nom 6" x1="1409.32" y1="1043.24" x2="1409.32" y2="701.23" xlink:href="#Dégradé_sans_nom_6"/>
    <linearGradient id="Dégradé_sans_nom_6-4" data-name="Dégradé sans nom 6" x1="1500.21" y1="1056.14" x2="1500.21" y2="797.9" xlink:href="#Dégradé_sans_nom_6"/>
    <linearGradient id="Dégradé_sans_nom_5" data-name="Dégradé sans nom 5" x1="1588.64" y1="1088.48" x2="1588.64" y2="820.57" gradientUnits="userSpaceOnUse">
      <stop offset="0" stop-color="#ef9bb3"/>
      <stop offset=".11" stop-color="#e98179"/>
      <stop offset=".19" stop-color="#e56f50"/>
      <stop offset=".24" stop-color="#e46840"/>
      <stop offset=".24" stop-color="#e2673f"/>
      <stop offset=".33" stop-color="#a64c2e"/>
      <stop offset=".41" stop-color="#733420"/>
      <stop offset=".49" stop-color="#4a2114"/>
      <stop offset=".57" stop-color="#29130b"/>
      <stop offset=".64" stop-color="#120805"/>
      <stop offset=".72" stop-color="#040201"/>
      <stop offset=".78" stop-color="#000"/>
    </linearGradient>
    <linearGradient id="Dégradé_sans_nom_6-5" data-name="Dégradé sans nom 6" x1="1573.32" y1="997.65" x2="1573.32" y2="739.42" xlink:href="#Dégradé_sans_nom_6"/>
    <linearGradient id="Dégradé_sans_nom_6-6" data-name="Dégradé sans nom 6" x1="1750.26" y1="1030.98" x2="1750.26" y2="688.97" xlink:href="#Dégradé_sans_nom_6"/>
    <linearGradient id="Dégradé_sans_nom_6-7" data-name="Dégradé sans nom 6" x1="1842.36" y1="1024.89" x2="1842.36" y2="766.65" xlink:href="#Dégradé_sans_nom_6"/>
    <linearGradient id="Dégradé_sans_nom_89" data-name="Dégradé sans nom 89" x1="553.82" y1="1272.37" x2="553.82" y2="422.49" gradientUnits="userSpaceOnUse">
      <stop offset="0" stop-color="#ef9bb3"/>
      <stop offset=".06" stop-color="#ee99af"/>
      <stop offset=".11" stop-color="#ed95a5"/>
      <stop offset=".16" stop-color="#ec8d94"/>
      <stop offset=".2" stop-color="#e9827c"/>
      <stop offset=".24" stop-color="#e6755d"/>
      <stop offset=".28" stop-color="#e46840"/>
      <stop offset=".63" stop-color="#34170e"/>
      <stop offset=".74" stop-color="#000"/>
    </linearGradient>
  </defs>
  <g id="Calque_1-2" data-name="Calque 1">
    <rect class="cls-11" x="1.42" width="1919.52" height="1080.35"/>
  </g>
  <g id="Calque_2-2" data-name="Calque 2">
    <circle class="cls-9" cx="940.98" cy="408.07" r="220.55"/>
  </g>
  <g id="Calque_3" data-name="Calque 3">
    <path class="cls-10" d="M1.42,591.9l36.76-60.15s36.76-10.02,40.1-20.05,33.42-43.44,33.42-43.44l80.2-13.37v-33.42l26.73-43.44,13.37-36.76,36.76,23.39,50.12,56.81,113.62,6.68,26.73,43.44,93.57,50.12,50.12,56.81,63.49,13.37,26.73,26.73,90.22,13.37,63.49,43.44,126.98-13.37,30.07,43.44,60.15-63.49,90.22-50.12,23.39-43.44,103.59-46.78,56.81-80.2,26.73-6.68,30.07-30.07,53.47-36.76,36.76-53.47,90.22,86.88-6.68,66.83,56.81,16.71,86.88,33.42,23.39,63.49,53.47,46.78,46.78,53.47,76.86,46.78,7.9,29.05,1.36,342.97-1919.56-1.36-1.12-487.63Z"/>
  </g>
  <g id="Calque_4" data-name="Calque 4">
    <polygon class="cls-12" points="0 1080.71 1921.45 1080.71 1921.08 607.1 1856.04 484.96 1819.28 461.57 1802.57 398.08 1765.81 317.88 1729.05 371.35 1685.61 414.79 1652.2 488.31 1568.65 548.46 1481.77 548.46 1428.31 588.56 1348.11 632 1224.46 632 1127.56 628.66 1023.96 682.12 953.79 735.59 860.22 738.93 790.05 675.44 786.71 575.19 729.9 515.04 696.48 448.21 646.36 428.16 639.67 347.96 606.26 287.81 495.98 398.08 405.76 484.96 322.22 535.09 282.12 548.46 171.84 548.46 11.44 618.63 1.06 663.05 0 1080.71"/>
  </g>
  <g id="Calque_8" data-name="Calque 8">
    <polygon class="cls-1" points="1124.97 683.72 1155.09 720.29 1170.14 748.25 1189.5 769.76 1206.71 795.57 1219.62 819.23 1193.8 819.23 1176.6 814.93 1195.95 836.44 1213.16 849.35 1217.46 868.7 1232.52 883.76 1247.58 905.27 1254.03 928.93 1234.67 939.69 1206.71 948.29 1228.22 961.2 1256.18 965.5 1264.79 995.61 1281.99 997.76 1290.6 1021.43 1249.73 1019.27 1208.86 1014.97 1155.09 1014.97 1118.52 1025.73 1047.54 1025.73 983.01 1019.27 991.61 999.92 1023.87 976.25 1047.54 965.5 983.01 950.44 1010.97 918.18 1038.93 890.21 1047.54 862.25 1069.05 838.59 1036.78 829.99 1036.78 812.78 1047.54 782.66 1090.56 741.8 1112.07 705.23 1124.97 683.72"/>
    <polygon class="cls-7" points="1219.03 801.42 1196.29 829.03 1184.92 850.14 1170.31 866.38 1157.31 885.87 1147.57 903.74 1167.06 903.74 1180.05 900.49 1165.43 916.73 1152.44 926.47 1149.19 941.09 1137.82 952.46 1126.46 968.7 1121.58 986.56 1136.2 994.69 1157.31 1001.18 1141.07 1010.93 1119.96 1014.17 1113.46 1036.91 1100.47 1038.54 1093.97 1056.4 1124.83 1054.78 1155.69 1051.53 1196.29 1051.53 1223.9 1059.65 1277.5 1059.65 1326.22 1054.78 1319.72 1040.16 1295.36 1022.3 1277.5 1014.17 1326.22 1002.81 1305.11 978.44 1283.99 957.33 1277.5 936.22 1261.26 918.35 1285.62 911.86 1285.62 898.86 1277.5 876.13 1245.02 845.27 1228.77 817.66 1219.03 801.42"/>
    <polygon class="cls-6" points="1397.49 701.23 1427.6 737.8 1442.66 765.76 1462.02 787.27 1479.23 813.08 1492.13 836.74 1466.32 836.74 1449.11 832.44 1468.47 853.95 1485.68 866.86 1489.98 886.22 1505.04 901.27 1520.1 922.78 1526.55 946.44 1507.19 957.2 1479.23 965.8 1500.74 978.71 1528.7 983.01 1537.3 1013.13 1554.51 1015.28 1563.12 1038.94 1522.25 1036.79 1481.38 1032.48 1427.6 1032.48 1391.04 1043.24 1320.05 1043.24 1255.52 1036.79 1264.13 1017.43 1296.39 993.77 1320.05 983.01 1255.52 967.95 1283.49 935.69 1311.45 907.73 1320.05 879.76 1341.56 856.1 1309.3 847.5 1309.3 830.29 1320.05 800.18 1363.07 759.31 1384.58 722.74 1397.49 701.23"/>
    <polygon class="cls-8" points="1509.14 797.9 1486.4 825.51 1475.04 846.63 1460.42 862.87 1447.43 882.36 1437.68 900.22 1457.17 900.22 1470.16 896.97 1455.55 913.21 1442.55 922.96 1439.31 937.58 1427.94 948.94 1416.57 965.19 1411.7 983.05 1426.31 991.17 1447.43 997.67 1431.18 1007.41 1410.07 1010.66 1403.57 1033.4 1390.58 1035.02 1384.09 1052.89 1414.94 1051.26 1445.8 1048.02 1486.4 1048.02 1514.01 1056.14 1567.61 1056.14 1616.33 1051.26 1609.84 1036.65 1585.47 1018.78 1567.61 1010.66 1616.33 999.29 1595.22 974.93 1574.11 953.82 1567.61 932.7 1551.37 914.84 1575.73 908.34 1575.73 895.35 1567.61 872.61 1535.13 841.75 1518.89 814.14 1509.14 797.9"/>
    <polyline class="cls-2" points="1458.18 1088.48 1453.12 1087.3 1481.09 1055.03 1509.05 1027.07 1517.65 999.11 1539.16 975.45 1506.9 966.84 1506.9 949.63 1517.65 919.52 1560.67 878.65 1582.18 842.08 1595.09 820.57 1625.2 857.14 1640.26 885.1 1659.62 906.61 1676.83 932.43 1689.73 956.09 1663.92 956.09 1646.71 951.79 1666.07 973.3 1683.28 986.2 1687.58 1005.56 1702.64 1020.62 1717.7 1042.13 1724.15 1065.79 1704.79 1076.54 1676.83 1085.15 1680.68 1087.46"/>
    <polygon class="cls-3" points="1582.25 739.42 1559.52 767.03 1548.15 788.14 1533.53 804.38 1520.54 823.87 1510.79 841.74 1530.28 841.74 1543.28 838.49 1528.66 854.73 1515.67 864.48 1512.42 879.09 1501.05 890.46 1489.68 906.7 1484.81 924.57 1499.42 932.69 1520.54 939.18 1504.3 948.93 1483.18 952.18 1476.69 974.91 1463.69 976.54 1457.2 994.4 1488.06 992.78 1518.91 989.53 1559.52 989.53 1587.13 997.65 1640.72 997.65 1689.45 992.78 1682.95 978.16 1658.59 960.3 1640.72 952.18 1689.45 940.81 1668.33 916.45 1647.22 895.33 1640.72 874.22 1624.48 856.35 1648.84 849.86 1648.84 836.87 1640.72 814.13 1608.24 783.27 1592 755.66 1582.25 739.42"/>
    <polygon class="cls-5" points="1738.43 688.97 1768.55 725.54 1783.6 753.5 1802.96 775.01 1820.17 800.83 1833.08 824.49 1807.26 824.49 1790.06 820.18 1809.42 841.69 1826.62 854.6 1830.93 873.96 1845.98 889.02 1861.04 910.53 1867.49 934.19 1848.13 944.94 1820.17 953.55 1841.68 966.45 1869.64 970.75 1878.25 1000.87 1895.46 1003.02 1904.06 1026.68 1863.19 1024.53 1822.32 1020.23 1768.55 1020.23 1731.98 1030.98 1661 1030.98 1596.47 1024.53 1605.07 1005.17 1637.34 981.51 1661 970.75 1596.47 955.7 1624.43 923.43 1652.39 895.47 1661 867.51 1682.51 843.85 1650.24 835.24 1650.24 818.03 1661 787.92 1704.02 747.05 1725.53 710.48 1738.43 688.97"/>
    <polyline class="cls-4" points="1928.68 831.01 1907.09 810.5 1890.85 782.89 1881.1 766.65 1858.36 794.26 1846.99 815.38 1832.38 831.62 1819.39 851.11 1809.64 868.97 1829.13 868.97 1842.12 865.72 1827.51 881.96 1814.51 891.71 1811.26 906.33 1799.9 917.69 1788.53 933.94 1783.65 951.8 1798.27 959.92 1819.39 966.42 1803.14 976.16 1782.03 979.41 1775.53 1002.15 1762.54 1003.77 1756.04 1021.64 1786.9 1020.01 1817.76 1016.77 1858.36 1016.77 1885.97 1024.89 1927.89 1024.89"/>
  </g>
  <g id="Calque_5" data-name="Calque 5">
    <polygon class="cls-13" points=".14 693.26 494.19 655.39 656.2 632 771.92 628.66 879.92 615.29 964.78 611.95 1041.93 598.58 1107.51 605.26 1080.5 642.02 1103.65 688.81 1103.65 718.88 987.93 772.35 945.5 872.6 899.21 909.36 895.35 972.85 949.35 1036.34 837.97 1079.95 1.88 1079.95 .14 693.26"/>
  </g>
  <g id="Calque_6" data-name="Calque 6">
    <path d="M733.72,611.14s23.89-24.57,29.81-25.61c5.92-1.04,27.26-25.53,27.26-25.53l7.33-10.44s5.44-16.33,10.43-19.89c4.99-3.56,104.73-50.08,104.73-50.08l-8.58-2.28,13.63-3.18-5.34-4.38,14.9-1.44,7.68-3.82-8.16-1.37,11.3-2.31,15.04-7.3-10.09-.66,16.16-12.85,9.23-16.21s-12.1-2.54-19.03-5.9l26.83-14.49s4.72-25.48,20.21-28.57c0,0,13.02-19.74,15.08-26.46,0,0,7.63-5.28,7.98,5.76,0,0,4.89.5,4.12,27.48,0,0,5.53.15,5.38-14.79l2.27-.07.45,3.88,4.64,2.78,1.16,5.81-3.6,9.53s-20.44,22.4,4.04,53.92l-7.08-.95,6.14,8.61-6.49-.97.22,7.04-7.85-6.8s7.28,26.19,2.25,33.98l-4.14-1.04-.27,9.99-4.29-5.74-1.51,26.47-3.82-9.27-3.57,17.14-4.25-4.56s3.36,13.4-13.96,22.75l-.2-6.45-7.97,7.88s-14.26,50.35,1.27,77.46c0,0,12.13-6.25,12.45,3.72l-23.86,6.62s-8.56-10.88-9.17-30.24l-4.6,3.08-1.9-41.62s-10.85,46.72-6.06,68.29c0,0,8.67-4.38,9.57,5.57l-20.32,7.1-4.61-34.49-4.62,2.49,3.59-16.55-5.17,3.69,4.3-12.46-5.2,2.51,3-16.53-6.36,3.14-.2-6.45-18.44,11.15,4.4-9.53-25.57,8.44,3.83-8.93-14.63,1.64s7.3,26.78-13.35,42.11l-19.29,21.16s8.8,18.51,16.56,22.37c0,0,11.66-2.72,13.11,6.04l-18.69,2.94s-20.35-12.27-25.54-27.96c0,0,13.41-21.56,11.26-33.82,0,0-14.03,20.4-41.28,31.25,0,0-9.03,27.66-5.76,40.69s-9.4,18.5-17.96,7.61l9.4-55.48s21.05-21.21,19.42-35.84c0,0-3.48,20.07-14.55,22.77l-.83-7.61s-11.19,17.38-20.45,21.78l-1.32-4.66s-14.05,19.82-21.62,21.82l-8.78.86-3.17-7.53-3.98,4.24s4.41-27.73,14.84-32.17l-7.74,1.73Z"/>
  </g>
  <g id="Calque_7" data-name="Calque 7">
    <path d="M1920.77,864.39l-20.8-35.37-12.48-20.8-29.13,35.37-14.56,27.05-18.72,20.8-16.64,24.97-7.66,14.04-14.64-14.64-5.51-24.8-22.04-16.53-24.8-27.55,22.04,5.51h33.06l-16.53-30.31-22.04-33.06-24.8-27.55-19.29-35.82-38.58-46.84-16.53,27.55-27.55,46.84-55.11,52.35-13.78,38.58v22.04l41.33,11.02-27.55,30.31-1.65,5.38-.5-.47-20.8-35.37-12.48-20.8-29.13,35.37-14.56,27.05-18.72,20.8-16.64,24.97-7.66,14.04-14.64-14.64-5.51-24.8-22.04-16.53-24.8-27.55,22.04,5.51h33.06l-16.53-30.31-22.04-33.06-24.8-27.55-19.29-35.82-38.58-46.84-16.53,27.55-27.55,46.84-55.11,52.35-11.14,31.2-35.61-33.83-20.8-35.37-12.48-20.8-29.13,35.37-14.56,27.05-18.72,20.8-15.61,23.41-13.57-10.18-24.8-27.55,22.04,5.51h33.06l-16.53-30.31-22.04-33.06-24.8-27.55-19.29-35.82-38.58-46.84-16.53,27.55-27.55,46.84-25.59,24.31-5.72-16.02-41.61-39.53-20.8-35.37-12.48-20.8-29.13,35.37-14.56,27.05-18.72,20.8-16.64,24.97-12.48,22.89h24.97l16.64-4.16-18.72,20.8-16.21,12.16-17.43-29.62-12.48-20.8-29.13,35.37-14.56,27.05-18.72,20.8-16.64,24.97-7.66,14.04-14.64-14.64-5.51-24.8-22.04-16.53-24.8-27.55,22.04,5.51h33.06l-16.53-30.31-22.04-33.06-24.8-27.55-19.29-35.82-38.58-46.84-16.53,27.55-27.55,46.84-55.11,52.35-13.78,38.58v22.04l41.33,11.02-27.55,30.31-1.65,5.38-.5-.47-20.8-35.37-12.48-20.8-29.13,35.37-14.56,27.05-18.72,20.8-16.64,24.97-7.66,14.04-14.64-14.64-5.51-24.8-22.04-16.53-24.8-27.55,22.04,5.51h33.06l-16.53-30.31-22.04-33.06-24.8-27.55-19.29-35.82-38.58-46.84-16.53,27.55-27.55,46.84-55.11,52.35-11.82,39.42-.38,21.5,39.75,10.71-27.55,30.31-11.02,35.82v105.57h1919.55l-.62-216.43ZM265.32,971.18l16.64-4.16-18.06,20.07-11.13-15.91h12.55ZM619.78,923.14l16.64-4.16-18.06,20.07-11.13-15.91h12.55ZM1219.24,936.29v-16.64l-.13-.37,22.42,5.98-27.55,30.31-4.41,14.32-.74-2.39-20.8-22.89,31.21-8.32ZM1084.01,921.73l-11.83,13.15-2.27-2.27-1.55-6.96,15.65-3.91ZM1466.44,987.33l16.64-4.16-18.06,20.07-11.13-15.91h12.55ZM1820.91,939.28l16.64-4.16-18.06,20.07-11.13-15.91h12.55Z"/>
  </g>
</svg>