<svg width="245" height="47" viewBox="0 0 245 47" fill="none" xmlns="http://www.w3.org/2000/svg">
<path d="M88.3085 45.609C84.6476 45.6569 81.0004 45.7275 77.3554 45.7662C81.8255 47.2631 85.6369 46.6138 88.3085 45.609Z" fill="#FFF4DA"/>
<path d="M144.649 42.5514C130.015 44.9164 115.166 44.7022 100.534 44.9164C99.4234 44.9164 98.2403 45.1989 97.0687 45.3994L117.73 45.3196C119.091 45.4791 119.572 44.8389 119.572 44.8389C119.891 45.3196 121.254 45.3994 121.254 45.3994L137.988 45.3197C139.269 45.3994 139.75 44.9187 139.75 44.9187C139.894 45.0394 140.124 45.1442 140.377 45.2331C141.038 45.4677 141.743 45.5589 142.445 45.5543L155.044 45.4791C155.844 45.5589 156.404 44.9984 156.404 44.9984C157.446 45.5589 158.005 45.4791 158.005 45.4791L178.821 45.5589C179.943 45.5589 180.583 44.8389 180.583 44.8389C180.823 45.4791 182.425 45.4791 182.425 45.4791L185.432 45.4655C182.256 44.6817 179.14 43.6336 175.858 43.1962C165.313 41.476 154.768 45.5612 144.654 42.5514L144.649 42.5514Z" fill="black"/>
<path d="M44.7674 46.1148C45.8548 46.288 46.974 46.2652 48.0294 45.9508C48.7794 45.7275 49.274 45.4814 49.274 45.4814L59.4361 45.4427C58.9324 45.4131 58.4263 45.3834 57.9225 45.347C42.5791 44.3468 27.3679 44.2511 12.184 44.2579C12.6376 44.4607 13.0867 44.6475 13.5312 44.8184C17.0553 46.1649 20.8507 46.6525 24.6188 46.4429C39.0322 45.6477 43.4294 45.8984 44.7697 46.1125L44.7674 46.1148Z" fill="black"/>
<path d="M57.9225 45.347C58.4286 45.3835 58.9324 45.4108 59.4361 45.4427L70.3322 45.4017C72.2539 45.2422 73.4552 43.9617 73.4552 43.9617C73.4688 43.9686 73.4825 43.9777 73.4962 43.9845C75.525 45.1807 77.8569 45.7617 80.2117 45.7298C82.1242 45.7024 84.0367 45.6705 85.9538 45.6409C88.1467 45.609 90.2848 44.9141 92.0537 43.6131C92.3022 43.4309 92.4321 43.3192 92.4321 43.3192C94.1144 45.8004 96.9957 45.3994 96.9957 45.3994L97.071 45.3994C98.2426 45.1989 99.4234 44.9164 100.536 44.9164C115.17 44.7022 130.019 44.9164 144.651 42.5514C154.766 45.5635 165.311 41.476 175.856 43.1962C179.138 43.6337 182.254 44.6817 185.43 45.4655L199.237 45.3994C200.196 45.3994 200.999 44.8389 200.999 44.8389C201.119 44.9597 201.311 45.0645 201.521 45.1534C201.669 45.2149 201.819 45.2673 201.972 45.3106C207.967 44.807 213.914 44.9164 219.971 44.9164C213.912 44.9164 207.967 44.807 201.972 45.3106C202.391 45.4291 202.829 45.4769 203.267 45.4723L216.369 45.3197C216.93 45.2399 217.571 44.9187 217.571 44.9187C218.291 45.7184 219.333 45.4792 219.333 45.4792L240.706 45.4792C243.322 45.3015 244.366 43.6018 244.779 42.1185C245.057 41.1138 245.062 40.0497 244.854 39.029C241.312 21.6721 243.019 10.2778 243.589 7.3409C243.765 6.43637 243.746 5.49995 243.487 4.61592C242.516 1.32362 239.185 1.14818 239.185 1.14818L223.894 1.14818C215.086 0.908948 211.325 8.111 211.325 8.111C208.444 1.22792 200.196 1.30995 200.196 1.30995L183.143 1.30994C181.703 1.15045 180.902 2.26915 180.902 2.26915C179.861 1.38969 178.101 1.14817 178.101 1.14817L161.688 1.14817C153.441 0.988681 150.48 8.19073 150.48 8.19073C146.958 0.749447 138.389 1.14817 138.389 1.14817L122.697 1.14816C121.496 0.829187 120.215 1.86814 120.215 1.86814C119.654 1.06842 117.892 0.988675 117.892 0.988675L96.9957 0.988671C92.2726 0.669693 91.7118 5.14905 91.7118 5.14905C86.1885 0.98867 77.2209 1.06841 77.2209 1.06841L48.5583 0.988663C47.8425 -0.221172 45.4239 -0.0320647 43.9833 0.20489C42.9142 0.380327 41.8405 0.491969 40.7578 0.498804C38.3825 0.514752 33.4542 0.444121 23.4198 0.0294485C5.96551 -0.690532 1.96267 12.0321 1.96267 12.0321C-2.84028 26.2767 2.683 35.6387 2.683 35.6387C5.0195 40.0474 8.68269 42.6835 12.1886 44.2602C27.3724 44.2534 42.5859 44.3491 57.9271 45.3493L57.9225 45.347Z" fill="black"/>
<path d="M4.57041 24.3173C4.57041 9.478 12.0518 4.62727 22.6903 4.62727C28.5372 4.62728 36.1349 5.97154 46.0713 4.80272L46.0713 16.3132C41.045 14.6181 36.894 13.8594 33.0347 13.8594C26.0799 13.8594 24.2677 16.4887 24.2677 21.1617C24.2677 24.6089 24.9105 26.9466 26.8983 26.9466C29.4696 26.9466 29.7636 24.2603 28.7698 18.4754L46.0713 18.1246C44.9612 25.076 44.9612 34.8937 46.0713 41.8451C36.1349 40.6763 27.9491 42.0205 22.6903 42.0205C12.0518 42.0205 4.57041 35.4177 4.57041 24.3173Z" fill="#EF9BB3"/>
<path d="M50.5711 21.9796C50.5711 16.1378 50.1038 10.7607 49.2261 5.79609L76.9337 5.79611C86.5783 5.79611 92.8333 9.71042 92.8333 16.4294C92.8333 22.1551 87.9825 25.7778 81.0847 25.7778C80.0908 25.7778 79.1562 25.6616 78.2786 25.6616C77.6928 25.6616 77.344 26.0124 77.344 26.4795C77.344 28.2908 80.0338 28.9333 82.1378 28.9333C86.2888 28.9334 90.4968 27.122 92.7171 25.2537L92.9518 25.2537C93.6539 27.0651 94.005 29.168 94.005 31.1548C94.005 37.2313 89.3274 42.0228 82.7806 42.0228C76.6419 42.0228 73.136 39.6852 71.6748 31.7403C71.3831 30.2206 70.7972 29.5212 69.9789 29.5212C69.2791 29.5212 68.8688 30.1044 68.8688 30.9816C68.8688 33.0846 69.2791 36.7665 69.9789 40.8563L49.2284 40.8562C50.106 34.1372 50.5733 27.826 50.5733 21.9842L50.5711 21.9796ZM71.3808 23.5563C73.193 23.5563 74.3031 21.8612 74.3031 19.642C74.3031 16.9535 73.3092 14.6751 71.497 14.6751C69.6848 14.6751 68.6317 16.9535 68.6317 19.642C68.6317 21.8612 69.5093 23.5563 71.3785 23.5563L71.3808 23.5563Z" fill="#EF9BB3"/>
<path d="M118.138 40.8517L96.2184 40.8517C97.9713 27.4136 97.9713 15.7277 96.2184 5.79609L118.138 5.7961C116.385 15.7277 116.385 27.4136 118.138 40.8517Z" fill="#EF9BB3"/>
<path d="M183.483 5.7961L198.564 5.79611C207.158 5.79611 208.735 11.4625 209.262 18.9425C209.378 20.8701 209.67 22.9161 211.074 22.9161C212.595 22.9161 213.003 20.8723 213.237 18.9425C214.291 11.4648 215.927 5.79611 224.519 5.79612L239.014 5.79613C237.437 15.6115 237.845 30.9201 240.418 40.8517L219.082 40.8517C220.719 32.9046 222.531 20.403 218.85 20.403C215.692 20.403 216.335 32.613 215.868 40.8517L202.54 40.8517C202.072 32.613 202.715 20.403 199.558 20.403C195.877 20.403 197.689 32.9069 199.323 40.8517L182.079 40.8517C184.65 30.9201 185.06 15.6115 183.481 5.7961L183.483 5.7961Z" fill="#EF9BB3"/>
<path d="M136.532 40.8517C135.599 37.4819 135.996 34.3514 135.996 34.3514L137.936 32.0115L135.597 31.8657C134.856 29.6715 135.155 30.2252 135.155 30.2252L136.753 28.1769L134.642 26.6413C133.272 23.0573 135.212 18.0858 135.212 18.0858C135.212 18.0858 135.383 21.23 142 26.1286C146.541 29.4916 148.497 34.0188 149.276 36.5273C150.868 37.3703 151.572 38.4184 151.572 38.4184C151.572 38.4184 151.985 32.4717 156.418 26.9352C158.034 24.9165 158.894 23.3262 159.334 22.1164L159.682 19.3002C159.676 19.2752 159.669 19.2524 159.662 19.2319C159.646 19.1704 159.628 19.1248 159.616 19.0997C159.616 19.0997 159.609 19.0861 159.607 19.0815L159.605 19.0747C159.625 19.102 159.728 19.2524 159.885 19.4894L159.885 19.4438C159.885 19.4438 160.049 19.7081 160.289 20.1205C161.114 21.4419 162.406 23.7135 162.559 25.1899L162.395 25.5955L162.368 25.7368L161.36 28.161L161.328 28.2134L161.194 28.5415L163.355 29.1247C163.355 29.1247 165.643 33.8069 165.73 40.854L179.284 40.854C176.71 30.9224 176.302 15.6138 177.88 5.7984L163.382 5.7984C154.788 5.79839 153.152 11.4648 152.101 18.9448C151.866 20.8723 151.458 22.9184 149.937 22.9184C148.533 22.9184 148.242 20.8746 148.125 18.9448C147.599 11.4671 146.021 5.79839 137.428 5.79838L122.346 5.79838C123.924 15.6138 123.516 30.9224 120.944 40.854L136.534 40.854L136.532 40.8517Z" fill="#EF9BB3"/>
</svg>
