<?xml version="1.0" encoding="UTF-8"?>
<svg id="Calque_2" data-name="Calque 2" xmlns="http://www.w3.org/2000/svg" viewBox="0 0 190.47 36.29">
  <defs>
    <style>
      .cls-1 {
        fill: #e36233;
      }

      .cls-2 {
        fill: #fff4da;
      }
    </style>
  </defs>
  <g id="Calque_1-2" data-name="Calque 1">
    <g>
      <path class="cls-2" d="M1.53,9.36S4.64-.54,18.21.02c7.8.32,11.63.38,13.48.36.84,0,1.68-.09,2.51-.23,1.12-.18,3-.33,3.56.61l22.28.06s6.97-.06,11.27,3.17c0,0,.44-3.49,4.11-3.24h16.25s1.37.06,1.81.68c0,0,1-.81,1.93-.56h12.2s6.66-.31,9.4,5.48c0,0,2.3-5.6,8.71-5.48h12.76s1.37.19,2.18.87c0,0,.62-.87,1.74-.75h13.26s6.41-.06,8.65,5.29c0,0,2.93-5.6,9.77-5.42h11.89s2.61.14,3.35,2.72c.2.7.2,1.44.06,2.16-.45,2.38-1.73,11.18.98,24.52.17.83.18,1.69-.05,2.5-.32,1.15-1.14,2.45-3.16,2.59h-16.62s-.81.19-1.37-.44c0,0-.5.25-.93.31l-10.19.12c-.46,0-.93-.07-1.36-.25-.16-.07-.31-.15-.41-.24,0,0-.62.44-1.37.44l-13.07.06s-1.24,0-1.43-.5c0,0-.5.56-1.37.56l-16.18-.06s-.44.06-1.24-.37c0,0-.44.44-1.06.37l-9.79.06c-.55,0-1.09-.07-1.61-.25-.2-.07-.38-.15-.49-.24,0,0-.37.37-1.37.31l-13.01.06s-1.06-.06-1.31-.44c0,0-.37.5-1.43.37l-16.12.06s-2.24.31-3.55-1.62c0,0-6.35,5.48-14.75.5,0,0-.93,1-2.43,1.12l-16.37.06s-.38.19-.97.37c-.82.24-1.69.26-2.54.13-1.04-.17-4.46-.36-15.67.26-2.93.16-5.88-.22-8.62-1.26-3.02-1.15-6.38-3.27-8.44-7.14,0,0-4.29-7.28-.56-18.36Z"/>
      <g>
        <path class="cls-1" d="M3.56,18.92C3.56,7.37,9.38,3.6,17.65,3.6c4.54,0,10.45,1.05,18.18.14v8.95c-3.91-1.32-7.13-1.91-10.13-1.91-5.41,0-6.82,2.05-6.82,5.68,0,2.68.5,4.5,2.04,4.5,2,0,2.23-2.09,1.45-6.59l13.45-.27c-.86,5.41-.86,13.04,0,18.45-7.73-.91-14.09.14-18.18.14-8.27,0-14.09-5.14-14.09-13.77Z"/>
        <path class="cls-1" d="M39.32,17.1c0-4.54-.36-8.73-1.05-12.59h21.54c7.5,0,12.36,3.04,12.36,8.27,0,4.45-3.77,7.27-9.13,7.27-.77,0-1.5-.09-2.18-.09-.45,0-.73.27-.73.64,0,1.41,2.09,1.91,3.73,1.91,3.23,0,6.5-1.41,8.23-2.86h.18c.55,1.41.82,3.04.82,4.59,0,4.73-3.64,8.45-8.73,8.45-4.77,0-7.5-1.82-8.63-8-.23-1.18-.68-1.73-1.32-1.73-.54,0-.86.45-.86,1.14,0,1.64.32,4.5.86,7.68h-16.13c.68-5.23,1.05-10.13,1.05-14.68ZM55.5,18.32c1.41,0,2.27-1.32,2.27-3.04,0-2.09-.77-3.86-2.18-3.86s-2.23,1.77-2.23,3.86c0,1.73.68,3.04,2.14,3.04Z"/>
        <path class="cls-1" d="M91.85,31.78h-17.04c1.36-10.45,1.36-19.54,0-27.27h17.04c-1.36,7.73-1.36,16.81,0,27.27Z"/>
        <path class="cls-1" d="M142.65,4.51h11.72c6.68,0,7.91,4.41,8.32,10.22.09,1.5.32,3.09,1.41,3.09,1.18,0,1.5-1.59,1.68-3.09.82-5.82,2.09-10.22,8.77-10.22h11.27c-1.23,7.63-.91,19.54,1.09,27.27h-16.59c1.27-6.18,2.68-15.91-.18-15.91-2.45,0-1.95,9.5-2.32,15.91h-10.36c-.36-6.41.14-15.91-2.32-15.91-2.86,0-1.45,9.72-.18,15.91h-13.41c2-7.73,2.32-19.63,1.09-27.27Z"/>
        <path class="cls-1" d="M106.15,31.78c-.72-2.62-.42-5.06-.42-5.06l1.51-1.82-1.82-.11c-.58-1.71-.34-1.28-.34-1.28l1.24-1.59-1.64-1.19c-1.06-2.79.44-6.65.44-6.65,0,0,.13,2.45,5.28,6.26,3.53,2.62,5.05,6.14,5.66,8.09,1.24.66,1.78,1.47,1.78,1.47h0s.32-4.63,3.77-8.93c1.26-1.57,1.92-2.81,2.27-3.75l.27-2.19s-.01-.04-.02-.05c-.01-.05-.03-.08-.04-.1h0s0-.01,0-.02c0,0,0,0,0,0,0,0,0,0,0,0h0s.09.14.22.33v-.04s.13.2.31.53c.64,1.03,1.65,2.8,1.77,3.94l-.13.32-.02.11-.78,1.89-.02.04-.1.26,1.68.45s1.78,3.64,1.85,9.12h10.54c-2-7.73-2.32-19.63-1.09-27.27h-11.27c-6.68,0-7.95,4.41-8.77,10.22-.18,1.5-.5,3.09-1.68,3.09-1.09,0-1.32-1.59-1.41-3.09-.41-5.82-1.64-10.22-8.32-10.22h-11.72c1.23,7.63.91,19.54-1.09,27.27h12.12Z"/>
      </g>
    </g>
  </g>
</svg>