<?xml version="1.0" encoding="UTF-8"?>
<svg id="Calque_2" data-name="Calque 2" xmlns="http://www.w3.org/2000/svg" xmlns:xlink="http://www.w3.org/1999/xlink" viewBox="0 0 206.86 196.89">
  <defs>
    <style>
      .cls-1, .cls-2, .cls-3, .cls-4, .cls-5 {
        fill: none;
      }

      .cls-6 {
        fill: #79bb60;
      }

      .cls-7 {
        stroke: #1f2c53;
      }

      .cls-7, .cls-8, .cls-9, .cls-2, .cls-3, .cls-4, .cls-5, .cls-10 {
        stroke-miterlimit: 10;
      }

      .cls-7, .cls-11 {
        fill: #1f2c53;
      }

      .cls-8, .cls-12 {
        fill: #848484;
      }

      .cls-8, .cls-5 {
        stroke: #191919;
      }

      .cls-13 {
        fill: #ef9bb3;
      }

      .cls-9, .cls-4 {
        stroke: #1d1d1b;
      }

      .cls-14 {
        fill: #79160e;
      }

      .cls-2 {
        stroke-linecap: round;
      }

      .cls-2, .cls-3, .cls-10 {
        stroke: #000;
      }

      .cls-15 {
        fill: #fff;
      }

      .cls-16 {
        fill: #e36233;
      }

      .cls-17 {
        fill: #fff4da;
      }

      .cls-18 {
        fill: #e2e2e1;
      }

      .cls-19 {
        clip-path: url(#clippath);
      }
    </style>
    <clipPath id="clippath">
      <circle class="cls-1" cx="107.07" cy="98.45" r="78.29"/>
    </clipPath>
  </defs>
  <g id="Calque_1-2" data-name="Calque 1">
    <g>
      <g>
        <ellipse class="cls-17" cx="97.13" cy="98.45" rx="97.13" ry="98.45"/>
        <g>
          <g>
            <path class="cls-8" d="M72,97.53s-2.28-11.64-15.68-19.38c-13.4-7.74-13.74-12.7-13.74-12.7,0,0-3.93,7.85-1.15,13.51l4.27,2.43-3.23,3.23s-.61-.87.9,2.59l4.74.23-3.93,3.7s-1.88,11.39,6.66,18.2"/>
            <path class="cls-12" d="M97.79,130.7c1.61-2.53,10.59-2.3,10.59-2.3-4.14-4.6-10.36-3.91-10.36-3.91,13.35-22.79,1.53-41.61,1.53-41.61l-4.38-.92,2.76-5.29c-.45-3.39-5.78-9.44-5.98-9.66,0,0,.01.02.02.04h0s.06.12.09.21c.01.03.03.07.04.11.37,1.12.75,4.89-6.61,12.06-8.98,8.74-9.81,18.14-9.81,18.14l-7.41.3c-4.63.61-13.31,4.3-16.72,8.43,0,0-1.1,2.41-2.75,8.23,1.43.13,3.44,1.28,3.44,1.28-.33-.52-2.03-1.09-2.03-1.09,1.88.06,4.18,1.21,4.18,1.21,0-.27-1.27-1.24-1.27-1.24,1.67.36,3.03,1.33,3.03,1.33.73-.15.97-1.6.97-1.6.02.32.02.62-.01.9-.21,2.22-2.51,3.62-4.63,2.91-3.34-1.12-3.93-1.03-3.93-1.03l.15-2.09.94.3c-.24-.32-.6-.54-.88-.68-.57,2.09-.82,4.35-.46,6.63,0,0-3.33-2.36-7.24,1.32,0,0-3.79-5.45-10.47-1.07,0,0-2.75-6.16-7.8-.92,4.98,1.2,5.39,3.75,4.42,5.98-1.38,3.18-3,4.67-6.13,6.87-1.28.9-3.24,3.45-4.42,2.42-.32-.27-.66-.58-1.02-.91.06.36.48,1.38,2.73,3.92.31.35.81.45,1.23.26l.36-.16c0,.28.23,3.52,10.69,5.64,3.97.8,8.03,1.04,12.07.8,2.1-.12,4.89-.25,7.84-.27.15.4,5.18-.84,2.13,4.42l30.62,20.62c10.31-17.57,9.73-19.07,9.79-21.89.01-.67.23-1.3.6-1.85,5.21-7.66,16.28-8.46,16.28-8.46-2.53-5.98-12.2-7.37-12.2-7.37ZM51.83,121.26l-1.45-.44s-1.36-1.93.44-3.11l1.45.51s.21.35.09.73l-.86.23.71.69s.27.9-.38,1.39ZM54.1,121.46s-.77.08-1.76-.04c.57,0,1.19.02,1.81.04-.02,0-.03,0-.05,0ZM75.99,119.39c-1.08-.11-2.16-.1-3.23.02-1.47.16-3.88.42-5.95.62.06.16.22.69.1.97l-.95.34.93.56s-.9,2.96-2.86,1.38c-.03-.02-.05-.04-.08-.07l-.05-.12c-.61-.86-.62-1.88-.57-2.41v-.05s0,0,0,0c.02-.19.05-.31.05-.31,0,0-2.16.28-3.25-1.84-.61-1.21-.48-2.68.45-3.67.06-.07.13-.13.2-.2,0,0-.35,1.46-.09,2.24,0,0,1.9-.95,4.05-.95l-1.45.77c.23-.05,3.86-.77,6.19-.77l-2.15.94c.2-.03,4.26-.67,6.11-.34l-2.58.52s4.05-.26,6.12.6l-2.58.26s2.76.43,4.48,1.9c0,0-1.39-.23-2.87-.38Z"/>
            <path class="cls-18" d="M28.96,129.55s4.85-2.5,7.44.16c0,0,4.46-4.86,9.8,0,0,0,3.16-3.88,6.53-2.18,0,0,3.52-4.89,8.39-2.69h0c-1.23-2.85-1.57-6.02-.96-9.07l.56-2.99s.56-6.62,12.17-5.99c0,0,17.57.31,4.86,18.98,0,0,4.71-3.29,10.2-.31,0,0-8.79,1.88-8.94,4.39,0,0,7.69-2.04,10.2,2.04,0,0-8.47-1.57-9.88,1.57,0,0,5.18-.16,6.43,5.02,0,0-12.55-.16-14.9,7.06h-12.71l-6.59-.31-6.99.24-5.56.07-4.71-.31-5.18-.94-3.77-.94-3.45-1.57-1.57-1.41-.67-1.35-1,.07-.63-.65-1.29-1.78,1.05-1.91,11.17-5.2Z"/>
            <path class="cls-11" d="M108.09,128.15s-9.64-2.31-12.59,2.83c0,0,1.71-.56,2.63-.24l-.24-.44,1.67-.84,1.79-.56,1.71-.28,2.39-.32h1.51l1.12-.16Z"/>
            <path class="cls-11" d="M109.83,137.93s-16.64-.58-22.66,9.66c0,0,3.31-3.31,6.03-.6,0,0,4.34-7.57,16.64-9.06Z"/>
            <path d="M30.53,121.81s4.69,4.14,5.88,7.9c0,0-.66-5.08-4.95-8.45l-.93.55Z"/>
            <path class="cls-11" d="M41.05,122.91s4.1,3.47,5.15,6.8c0,0-.69-4.53-4.47-7.51l-.68.71Z"/>
            <path class="cls-11" d="M48.21,121.44s3.62,3.22,4.53,6.08c0,0-.6-3.7-3.87-6.27l-.66.18Z"/>
            <path class="cls-3" d="M97.79,130.7c1.61-2.53,10.59-2.3,10.59-2.3-4.14-4.6-10.36-3.91-10.36-3.91,13.35-22.79,1.53-41.61,1.53-41.61l-4.38-.92,2.76-5.29c-.45-3.39-5.78-9.44-5.98-9.66,0,0,.01.02.02.04h0s.06.12.09.21c.01.03.03.07.04.11.37,1.12.75,4.89-6.61,12.06-8.98,8.74-9.81,18.14-9.81,18.14l-7.41.3c-4.63.61-13.31,4.3-16.72,8.43,0,0-1.1,2.41-2.75,8.23,1.43.13,3.44,1.28,3.44,1.28-.33-.52-2.03-1.09-2.03-1.09,1.88.06,4.18,1.21,4.18,1.21,0-.27-1.27-1.24-1.27-1.24,1.67.36,3.03,1.33,3.03,1.33.73-.15.97-1.6.97-1.6.02.32.02.62-.01.9-.21,2.22-2.51,3.62-4.63,2.91-3.34-1.12-3.93-1.03-3.93-1.03l.15-2.09.94.3c-.24-.32-.6-.54-.88-.68-.57,2.09-.82,4.35-.46,6.63,0,0-3.33-2.36-7.24,1.32,0,0-3.79-5.45-10.47-1.07,0,0-2.75-6.16-7.8-.92,4.98,1.2,4.59,3.17,3.62,5.39-1.38,3.18-2.2,5.25-5.33,7.46-1.28.9-3.24,3.45-4.42,2.42-.32-.27-.66-.58-1.02-.91.06.36.48,1.38,2.73,3.92.31.35.81.45,1.23.26l.36-.16c0,.28.23,3.52,10.69,5.64,3.97.8,8.03,1.04,12.07.8,2.1-.12,4.89-.25,7.84-.27.15.4,5.18-.84,2.13,4.42l30.62,20.62c10.31-17.57,9.73-19.07,9.79-21.89.01-.67.23-1.3.6-1.85,5.21-7.66,16.28-8.46,16.28-8.46-2.53-5.98-12.2-7.37-12.2-7.37ZM51.83,121.26l-1.45-.44s-1.36-1.93.44-3.11l1.45.51s.21.35.09.73l-.86.23.71.69s.27.9-.38,1.39ZM54.1,121.46s-.77.08-1.76-.04c.57,0,1.19.02,1.81.04-.02,0-.03,0-.05,0ZM75.99,119.39c-1.08-.11-2.16-.1-3.23.02-1.47.16-3.88.42-5.95.62.06.16.22.69.1.97l-.95.34.93.56s-.9,2.96-2.86,1.38c-.03-.02-.05-.04-.08-.07l-.05-.12c-.61-.86-.62-1.88-.57-2.41v-.05s0,0,0,0c.02-.19.05-.31.05-.31,0,0-2.16.28-3.25-1.84-.61-1.21-.48-2.68.45-3.67.06-.07.13-.13.2-.2,0,0-.35,1.46-.09,2.24,0,0,1.9-.95,4.05-.95l-1.45.77c.23-.05,3.86-.77,6.19-.77l-2.15.94c.2-.03,4.26-.67,6.11-.34l-2.58.52s4.05-.26,6.12.6l-2.58.26s2.76.43,4.48,1.9c0,0-1.39-.23-2.87-.38Z"/>
            <path class="cls-15" d="M54.8,117.77l.36,1.69-.37,1.76-.6.11-.87-.04-2.03-.05-2.05-.98-.32-.26s-.67-2.08-.56-2.74l2.94-.12,2.04.17,1.47.44Z"/>
            <path class="cls-15" d="M64.64,123.87l1.74.63,2.11.09,1.86-.32,2.15-.66.62-.29s2.16-2.3,2.44-3.78l-2.37-.41-4.23.5-2.18.13-1.14.95-1.01,3.16Z"/>
            <path class="cls-3" d="M66.58,130.76l7.91,3.19c-4.27-1.56-3.95-1.07-3.95-1.07,0,0-4.72,3.5-17.19,6.85-12.47,3.35-20.84,1.07-20.84,1.07l-10.43-2.5c-.24-.06-.49-.04-.71.06l-1.29.71"/>
            <path class="cls-5" d="M15.65,135.04c-.02-.13,0-.17,0-.17l7.11-14.16"/>
            <path class="cls-5" d="M50.57,145.23c3.47-.02,7.15.1,10.17.54"/>
            <path class="cls-5" d="M19.98,139.06v-.02"/>
            <path class="cls-5" d="M22.8,120.68l-.03.03"/>
            <path class="cls-5" d="M48.81,114.52c-.02.07-.04.14-.05.2"/>
            <path class="cls-5" d="M68.28,97.86c4.14-.55,7.41-.3,7.41-.3"/>
            <path class="cls-5" d="M91.96,67s0,0,0,0"/>
            <path class="cls-5" d="M50.57,145.23s-.03-.06-.03-.06"/>
            <path class="cls-10" d="M30.82,126.14c-1.86,6.75-6.29,8.61-10.32,9.62-1.52.38-3.39.85-4.58-.18-.32-.27-.66-.58-1.02-.91-3.62-3.32-6.37-11.51-3.46-15.22,2.15-2.74,6.06-5.18,11.1-3.96,4.98,1.2,8.93,8.3,8.28,10.64Z"/>
            <path class="cls-14" d="M66.9,121l-.95.34.93.56s-.9,2.96-2.86,1.38c-.03-.02-.05-.04-.08-.07l-.05-.12-.29-.62-.25-.76-.03-1.03v-.05s0,0,0,0l.26-.32v-.02s3.2-.31,3.2-.31c0,0,0,.02.02.05.06.16.22.69.1.97Z"/>
            <path class="cls-14" d="M52.36,118.95l-.86.23.71.69s.27.9-.38,1.39l-1.45-.44s-1.36-1.93.44-3.11l1.45.51s.21.35.09.73Z"/>
            <path class="cls-7" d="M78.86,119.77s-1.39-.23-2.87-.38c-1.08-.11-2.16-.1-3.23.02-1.47.16-3.88.42-5.95.62-1.32.13-2.51.23-3.22.27-.08,0-.15,0-.22,0,0,0-2.16.28-3.25-1.84-.61-1.21-.48-2.68.45-3.67.06-.07.13-.13.2-.2,0,0-.35,1.46-.09,2.24,0,0,1.9-.95,4.05-.95l-1.45.77c.23-.05,3.86-.77,6.19-.77l-2.15.94c.2-.03,4.26-.67,6.11-.34l-2.58.52s4.05-.26,6.12.6l-2.58.26s2.76.43,4.48,1.9Z"/>
            <path class="cls-7" d="M57.11,115.31c-.21,2.22-2.51,3.62-4.63,2.91-3.34-1.12-4.03-.99-4.03-.99l.26-2.13.94.3c-.24-.32-.6-.54-.88-.68-.27-.13-.48-.19-.48-.19.16-.03.34-.03.53,0,1.43.13,3.44,1.28,3.44,1.28-.33-.52-2.03-1.09-2.03-1.09,1.88.06,4.18,1.21,4.18,1.21,0-.27-1.27-1.24-1.27-1.24,1.67.36,3.03,1.33,3.03,1.33.73-.15.97-1.6.97-1.6.02.32.02.62-.01.9Z"/>
            <path class="cls-5" d="M52.34,121.42h0c-2.3-.05-4.04-.07-4.04-.07"/>
            <path class="cls-5" d="M54.15,121.46c.53.01,1.08.03,1.62.04,3.77.09,6.4,3.95,6.4,3.95"/>
            <path class="cls-5" d="M73.11,123.33c-2.95,1.27-5.56,1.27-5.56,1.27-1.88-.03-2.94-.6-3.54-1.32-.05-.06-.09-.12-.14-.18"/>
            <path class="cls-5" d="M63.32,120.62s0,.04,0,.06"/>
            <path class="cls-5" d="M48.91,120c.96.94,2.33,1.29,3.42,1.42h0"/>
            <path class="cls-5" d="M54.92,118.21s.73,3.15-.77,3.25"/>
            <path class="cls-11" d="M103.36,111.13s-8.97,7.74-16.6,1.57c0,0-5.05-4.15-5.16-11.1,0,0-.22-8.3,2.92-13.01,0,0,3.25-5.72,4.93-7.06,0,0,5.27-6.56,3.03-13.34l.05-.6s4.65,5.92,5.33,8.7l-.31,1.24-2.04,3.83-.52.65.88.25,1.45.18,1.77.36.61.48s7,13.89,3.65,27.86Z"/>
            <path class="cls-3" d="M92.12,67.36c.64,1.56,2.64,7.86-3.5,14.98-7.09,8.23-8.7,19.7-5.41,25.52,3.29,5.83,7.33,9.4,16.07,5.95"/>
            <path class="cls-3" d="M92.08,67.26c-.04-.1-.07-.17-.09-.21"/>
            <path class="cls-3" d="M91.98,67.04s-.02-.04-.02-.04c0,0,0,0,0,0"/>
            <path class="cls-11" d="M75.7,97.56l-7.41.3h-.1c-2.71-2.42-7.36-2.75-7.36-2.75,5.18-.81,10.55,2.37,10.55,2.37-2.04-2.47-8.55-4.56-8.55-4.56,3.5.11,6.21.82,8.22,1.65h0c3.22,1.33,4.65,2.99,4.65,2.99Z"/>
            <path class="cls-5" d="M63.27,120.41s-.24,1.62.65,2.73"/>
            <path class="cls-11" d="M68.28,97.86s-7.84,1.53-8.59,11.76c0,0,9.28-12.18,16.01-12.06l-7.41.3Z"/>
            <circle cx="33.11" cy="131.5" r=".93"/>
            <circle cx="30.2" cy="133.28" r=".93"/>
            <circle cx="34.42" cy="134.4" r=".93"/>
            <circle cx="31.75" cy="136.23" r=".93"/>
          </g>
          <g class="cls-19">
            <g>
              <path class="cls-13" d="M27.57,69.7c24.32-31.12,35.63-44.89,44.68-48.42,6.08-2.37,32.4-3.84,42.37-3.77l-39.46,50.23c-.13-5.83-1.29-9.3-3.53-11.05-4.03-3.15-9.39,1.55-17.05,11.35-5.65,7.23-9.11,12.42-7.96,13.32,1.49,1.16,6.06-4.34,14.97-16.92l10.59,7.1c-10.51,12.29-21.72,31.95-32.15,46.16-1.52,2.07-5.36,1.66-6.72,3.58-3.84-6.95-10.78-7.83-13.83-10.21-6.16-4.81-10.11-18.08,8.08-41.36Z"/>
              <path class="cls-16" d="M27.57,69.7c24.32-31.12,35.63-44.89,44.68-48.42,6.08-2.37,32.4-3.84,42.37-3.77l-39.46,50.23c-.13-5.83-1.29-9.3-3.53-11.05-4.03-3.15-9.39,1.55-17.05,11.35-5.65,7.23-9.11,12.42-7.96,13.32,1.49,1.16,6.06-4.34,14.97-16.92l10.59,7.1c-10.51,12.29-21.72,31.95-32.15,46.16-1.52,2.07-5.36,1.66-6.72,3.58-3.84-6.95-10.78-7.83-13.83-10.21-6.16-4.81-10.11-18.08,8.08-41.36Z"/>
            </g>
            <g>
              <path class="cls-13" d="M104.05,36.74c5.52-7.07,12.93-16.37,17.17-22.73,7.27.54,14.1,2.01,20.43,4.54,5.02,3.92-4,20.55-10.35,28.67-5.41,6.93-11.36,9.33-14.96,6.53-.52-.4-.89-.93-1.35-1.28-.3-.24-.82.04-1.26.61-1.71,2.19-.92,4.06.18,4.92,2.16,1.69,6.06,1.21,8.99-.15l.12.1c-1.35,2.48-3.15,5.16-5.03,7.57-5.74,7.35-12.71,11.24-16.12,8.58-3.2-2.5-2.81-6.75,3.94-16.96,1.28-1.96,1.64-3.04,1.22-3.38-.36-.29-1.13.25-1.96,1.32-1.99,2.54-56.41,71.28-59.91,76.52l-10.8-8.44c6.81-7.77,64.17-79.33,69.69-86.4ZM113.4,47.12c.94.74,3.12-.86,5.22-3.55,2.54-3.25,4.18-6.41,3.23-7.15-.97-.76-3.65,1.59-6.19,4.84-2.1,2.69-3.24,5.09-2.27,5.85Z"/>
              <path class="cls-16" d="M104.05,36.74c5.52-7.07,12.93-16.37,17.17-22.73,7.27.54,14.1,2.01,20.43,4.54,5.02,3.92-4,20.55-10.35,28.67-5.41,6.93-11.36,9.33-14.96,6.53-.52-.4-.89-.93-1.35-1.28-.3-.24-.82.04-1.26.61-1.71,2.19-.92,4.06.18,4.92,2.16,1.69,6.06,1.21,8.99-.15l.12.1c-1.35,2.48-3.15,5.16-5.03,7.57-5.74,7.35-12.71,11.24-16.12,8.58-3.2-2.5-2.81-6.75,3.94-16.96,1.28-1.96,1.64-3.04,1.22-3.38-.36-.29-1.13.25-1.96,1.32-1.99,2.54-56.41,71.28-59.91,76.52l-10.8-8.44c6.81-7.77,64.17-79.33,69.69-86.4ZM113.4,47.12c.94.74,3.12-.86,5.22-3.55,2.54-3.25,4.18-6.41,3.23-7.15-.97-.76-3.65,1.59-6.19,4.84-2.1,2.69-3.24,5.09-2.27,5.85Z"/>
            </g>
            <g>
              <path class="cls-13" d="M72.95,148.6l-11.4-8.91c35.45-43.48,66.88-83.73,91.49-117.1,5.05,1.91,8.83,4.89,11.4,8.91-26.44,31.95-57.87,72.2-91.49,117.1Z"/>
              <path class="cls-16" d="M72.95,148.6l-11.4-8.91c35.45-43.48,66.88-83.73,91.49-117.1,5.05,1.91,8.83,4.89,11.4,8.91-26.44,31.95-57.87,72.2-91.49,117.1Z"/>
            </g>
            <g>
              <path class="cls-13" d="M183.99,70.5l7.45,5.82c4.24,3.32-8.48,21.2-26.04,44.21-4.54,5.92-9.26,12.27-8.57,12.81.75.59,5.82-5.49,10.53-11.28,18.34-22.39,32.65-39.04,36.89-35.73l7.16,5.59c-15.75,19.11-30.73,46.23-49.57,71.06-10.07,13.27-25.46,25.46-33.26,36.36l-10.53-8.23c19.74-23.59,50.43-61.01,48.61-62.44-1.51-1.18-24.43,28.84-42.98,52.16-.98,1.23-2.76,1.44-4,.47l-2.12-1.65c-1.24-.97-1.46-2.75-.5-3.99,18.16-23.62,41.59-53.25,40.07-54.43-1.82-1.42-30.72,37.4-48.84,62.25l-8.51-6.65c24.94-29.29,61.61-75.8,84.22-106.34Z"/>
              <path class="cls-16" d="M183.99,70.5l7.45,5.82c4.24,3.32-8.48,21.2-26.04,44.21-4.54,5.92-9.26,12.27-8.57,12.81.75.59,5.82-5.49,10.53-11.28,18.34-22.39,32.65-39.04,36.89-35.73l7.16,5.59c-15.75,19.11-30.73,46.23-49.57,71.06-10.07,13.27-25.46,25.46-33.26,36.36l-10.53-8.23c19.74-23.59,50.43-61.01,48.61-62.44-1.51-1.18-24.43,28.84-42.98,52.16-.98,1.23-2.76,1.44-4,.47l-2.12-1.65c-1.24-.97-1.46-2.75-.5-3.99,18.16-23.62,41.59-53.25,40.07-54.43-1.82-1.42-30.72,37.4-48.84,62.25l-8.51-6.65c24.94-29.29,61.61-75.8,84.22-106.34Z"/>
            </g>
            <g>
              <path class="cls-6" d="M164.96,34.25l7.45,5.82c4.24,3.32-11.13,24.6-32.19,52.08-5.44,7.08-11.12,14.65-10.43,15.19.75.59,6.78-6.71,12.39-13.66,21.84-26.87,38.8-46.91,43.05-43.6l7.16,5.59c-28.76,35.19-72.2,91.19-99.24,128.41l-10.53-8.23c23.46-28.35,60-73.26,58.18-74.68-1.56-1.22-28.31,33.06-52.03,62.93l-6.58-5.14c23.25-30.23,50.65-64.01,49.09-65.23-1.82-1.42-36.57,44.89-58.41,74.5l-8.51-6.65c29.59-35.24,73.43-90.92,100.63-127.33Z"/>
              <path class="cls-16" d="M164.96,34.25l7.45,5.82c4.24,3.32-11.13,24.6-32.19,52.08-5.44,7.08-11.12,14.65-10.43,15.19.75.59,6.78-6.71,12.39-13.66,21.84-26.87,38.8-46.91,43.05-43.6l7.16,5.59c-28.76,35.19-72.2,91.19-99.24,128.41l-10.53-8.23c23.46-28.35,60-73.26,58.18-74.68-1.56-1.22-28.31,33.06-52.03,62.93l-6.58-5.14c23.25-30.23,50.65-64.01,49.09-65.23-1.82-1.42-36.57,44.89-58.41,74.5l-8.51-6.65c29.59-35.24,73.43-90.92,100.63-127.33Z"/>
            </g>
            <path class="cls-17" d="M84.51,179.37s10.42-17.54,10.75-30.29c.02-.91.41-1.78,1.1-2.38,2.66-2.31,9.73-7.6,16.68-5.66,0,0-.86-7.35-4.03-9.37,0,0,2.02-2.02,4.18-1.44,0,0-3.31-6.92-10.37-8.21,0,0,8.69-13.15,2.44-34.15-.58-1.95-1.29-3.97-2.15-6.06l-3.17-1.44.58-4.18s-2.16-8.21-8.79-12.1l-1.73-.58s1.3,5.19-5.91,12.97c-7.2,7.78-8.93,14.99-8.93,14.99,0,0-2.16-1.15-3.89-1.87,0,0-4.18-9.08-15.42-14.99,0,0-13.69-8.21-12.25-15.42,0,0-7.2,8.07-5.76,18.59l.29,2.02,2.88,1.73-2.02,2.16.86,3.75,3.03,1.15-1.87,2.74s-.72,12,6.34,18.3l-1.15,8.79s-3.46-.72-4.9.43c0,0-5.19-3.31-9.65-.29l-.89.54,5.63,6.71,8.19,19.67.76,1.18,3.89-.14s0,1.87-3.75,9.22l39.05,23.63Z"/>
            <path class="cls-17" d="M103.81,85.59s7.59,1.36,10.35,5.81-1.38,10.29-1.38,10.29c0,0-4.68,9.75,3.68,21.42,8.02,11.18,7.72,19.97,1.19,29.67-.58.86-1.14,1.72-1.65,2.62l-3,5.26c-1.4,2.46-3.12,4.72-5.13,6.72-2.94,2.93-7.62,7.15-13.06,10.48l-56.27-21.72.38-7.47-1.39-18.62-.89-7.85s4.71-12.28,8.81-16.77,24.01-15.04,24.01-15.04c0,0,4.63-1.75,8.59-.76"/>
            <g>
              <path class="cls-8" d="M72,97.53s-2.28-11.64-15.68-19.38c-13.4-7.74-13.74-12.7-13.74-12.7,0,0-3.93,7.85-1.15,13.51l4.27,2.43-3.23,3.23s-.61-.87.9,2.59l4.74.23-3.93,3.7s-1.88,11.39,6.66,18.2"/>
              <path class="cls-12" d="M97.79,130.7c1.61-2.53,10.59-2.3,10.59-2.3-4.14-4.6-10.36-3.91-10.36-3.91,13.35-22.79,1.53-41.61,1.53-41.61l-4.38-.92,2.76-5.29c-.45-3.39-5.78-9.44-5.98-9.66,0,0,.01.02.02.04h0s.06.12.09.21c.01.03.03.07.04.11.37,1.12.75,4.89-6.61,12.06-8.98,8.74-9.81,18.14-9.81,18.14l-7.41.3c-4.63.61-13.31,4.3-16.72,8.43,0,0-1.1,2.41-2.75,8.23,1.43.13,3.44,1.28,3.44,1.28-.33-.52-.78-5.44-.78-5.44,1.88.06,2.56.5,2.56.5,0-.27.34-.53.34-.53,1.67.36,1.56,1.56,1.56,1.56.73-.15-.46-.49-.46-.49.02.32-4.23-.05-4.26.23-.21,2.22,4.48.03,2.36-.68-3.34-1.12-4.72,4.8-4.72,4.8l-.15-.64.94.3c-.24-.32-.6-.54-.88-.68-.57,2.09-.82,4.35-.46,6.63,0,0-3.33-2.36-7.24,1.32,0,0-3.79-5.45-10.47-1.07,0,0-2.75-6.16-7.8-.92,4.98,1.2,9.16,3.62,8.19,5.84-1.38,3.18-6.76,4.8-9.9,7.01-1.28.9-3.24,3.45-4.42,2.42-.32-.27-.66-.58-1.02-.91.06.36.48,1.38,2.73,3.92.31.35.81.45,1.23.26l.36-.16c0,.28.23,3.52,10.69,5.64,3.97.8,8.03,1.04,12.07.8,2.1-.12,4.89-.25,7.84-.27.15.4.9,2.88-2.14,8.14l33.25,25.2c10.31-17.57,11.37-27.37,11.43-30.19.01-.67.23-1.3.6-1.85,5.21-7.66,16.28-8.46,16.28-8.46-2.53-5.98-12.2-7.37-12.2-7.37ZM51.83,121.26l-1.45-.44s-1.36-1.93.44-3.11l1.45.51s.21.35.09.73l-.86.23.71.69s.27.9-.38,1.39ZM54.1,121.46s-.77.08-1.76-.04c.57,0,1.19.02,1.81.04-.02,0-.03,0-.05,0ZM73.43,116.49l-2.58.52s4.05-.26,6.12.6l-2.58.26s-.42-2.03,1.3-.57c0,0-.45-.18-1.94-.33-1.08-.11-.58-.78-1.66-.66-1.47.16-.78,1.27-2.85,1.47.06.16-2.22,2.93-2.34,3.22l-.95.34.93.56s-.9,2.96-2.86,1.38c-.03-.02,6.64-10.16,6.61-10.18l-2.19.94c-.61-.86-2.04.02-1.99-.51l-2.53,6.76.87.1c3.74-3.42-.47-7.12-.47-7.12,0,0-.48,3.66-1.56,1.53-.61-1.21-1.61.47-.68-.51.06-.07-1.39.38-1.31.31,0,0,2.62-1.88,2.88-1.11,0,0-1.07,2.4,1.09,2.4l-1.45.77"/>
              <path class="cls-18" d="M28.96,129.55s4.85-2.5,7.44.16c0,0,4.46-4.86,9.8,0,0,0,3.16-3.88,6.53-2.18,0,0,3.52-4.89,8.39-2.69h0c-1.23-2.85-5.98-2.42-5.37-5.47l2.64-6.57s2.89-6.63,14.5-6.01c0,0,17.57.31,4.86,18.98,0,0,4.71-3.29,10.2-.31,0,0-8.79,1.88-8.94,4.39,0,0,7.69-2.04,10.2,2.04,0,0-8.47-1.57-9.88,1.57,0,0,5.18-.16,6.43,5.02,0,0-9.61-.12-13.59,4.68-1.2,1.45-2.9,2.38-4.78,2.38h-9.25l-6.59-.31-6.99.24-5.56.07-4.71-.31-5.18-.94-3.77-.94-3.45-1.57-1.57-1.41-.67-1.35-1,.07-.63-.65-1.29-1.78,1.05-1.91,11.17-5.2Z"/>
              <path class="cls-18" d="M55.77,121.5s3.37-2.15,2.61-8.69c0,0-1.58-7.7-7.27-5.65l-.87,14.17,5.53.18s3.06-7.78,1.55-10.42"/>
              <path d="M108.09,128.15s-9.64-2.31-12.59,2.83c0,0,1.71-.56,2.63-.24l-.24-.44,1.67-.84,1.79-.56,1.71-.28,2.39-.32h1.51l1.12-.16Z"/>
              <path d="M109.83,137.93s-16.64-.58-22.66,9.66c0,0,3.31-3.31,6.03-.6,0,0,4.34-7.57,16.64-9.06Z"/>
              <path d="M30.53,121.81s4.69,4.14,5.88,7.9c0,0-.66-5.08-4.95-8.45l-.93.55Z"/>
              <path d="M40.94,123.38s4.1,3.47,5.15,6.8c0,0-.69-4.53-4.47-7.51l-.68.71Z"/>
              <path d="M48.21,121.83s3.62,3.22,4.53,6.08c0,0-.6-3.7-3.87-6.27l-.66.18Z"/>
              <path class="cls-3" d="M48.82,114.47c-.57,2.09-.89,4.61-.53,6.89,0,0-3.33-2.36-7.24,1.32,0,0-3.79-5.45-10.47-1.07,0,0-2.75-6.16-7.8-.92,4.98,1.2,9.16,3.62,8.19,5.84-1.38,3.18-6.76,4.8-9.9,7.01-1.28.9-3.24,3.45-4.42,2.42-.32-.27-.66-.58-1.02-.91.06.36.48,1.38,2.73,3.92.31.35.81.45,1.23.26l.36-.16c0,.28.23,3.52,10.69,5.64,3.97.8,8.03,1.04,12.07.8,2.1-.12,4.89-.25,7.84-.27.15.4.9,2.88-2.14,8.14l33.25,25.2c10.31-17.57,11.37-27.37,11.43-30.19.01-.67.23-1.3.6-1.85,5.21-7.66,16.28-8.46,16.28-8.46-2.53-5.98-12.2-7.37-12.2-7.37,1.61-2.53,10.59-2.3,10.59-2.3-4.14-4.6-10.36-3.91-10.36-3.91,13.35-22.79,1.53-41.61,1.53-41.61l-4.38-.92,2.76-5.29c-.45-3.39-5.78-9.44-5.98-9.66,0,0,.01.02.02.04h0s.06.12.09.21c.01.03.03.07.04.11.37,1.12.75,4.89-6.61,12.06-8.98,8.74-9.81,18.14-9.81,18.14l-7.41.3c-4.63.61-13.31,4.3-16.72,8.43,0,0-1.1,2.41-2.75,8.23M51.83,121.26l-1.45-.44s-1.36-1.93.44-3.11l1.45.51s.21.35.09.73l-.86.23.71.69s.27.9-.38,1.39ZM54.1,121.46s-.77.08-1.76-.04c.57,0,1.19.02,1.81.04-.02,0-.03,0-.05,0ZM63.28,116.66c.23-.05,3.86-.77,6.19-.77l-2.15.94c.2-.03,4.26-.67,6.11-.34l-2.58.52"/>
              <path class="cls-15" d="M55.59,112.39l-.44,7.07-.37,1.76-.6.11-.87-.04-2.03-.05-2.05-.98-.91-.65s.26-5.1,2.01-8.3l1.96-.44,1.68,1.15,1.62.36Z"/>
              <path class="cls-15" d="M64.64,123.87l1.74.63,2.11.09,1.86-.32,2.15-.66.62-.29c1.61-1.25,5.58-1.26,4.53-11.88l-8.55,1.14-4.77.68-1.85,1.22,1.16,3.15.99,6.23Z"/>
              <path class="cls-2" d="M67.59,140.95s-5.59-3.27-14.3-1.11c-12.48,3.09-20.84,1.07-20.84,1.07l-10.43-2.5c-.24-.06-.49-.04-.71.06l-1.34.59"/>
              <path class="cls-5" d="M15.65,135.04c-.02-.13,0-.17,0-.17l7.11-14.16"/>
              <path class="cls-2" d="M50.57,145.23c3.47-.02,7.15.1,10.17.54"/>
              <path class="cls-5" d="M19.98,139.06v-.02"/>
              <path class="cls-5" d="M22.8,120.68l-.03.03"/>
              <path class="cls-3" d="M68.28,97.86c4.14-.55,7.41-.3,7.41-.3"/>
              <path class="cls-5" d="M91.96,67s0,0,0,0"/>
              <path class="cls-5" d="M50.57,145.23s-.03-.06-.03-.06"/>
              <path class="cls-10" d="M30.99,126.53c-1.38,3.18-6.76,4.8-9.9,7.01-1.28.9-3.24,3.45-4.42,2.42-.32-.27-.66-.58-1.02-.91-3.62-3.32-8.8-9.09-5.89-12.8,2.15-2.74,8-2.78,13.04-1.56,4.98,1.2,9.16,3.62,8.19,5.84Z"/>
              <path d="M74.19,117.8l-2.57.7,2.62,1.03s.87,6.58-5.26,4.89c-.03-.02-.88.03-.91,0l-.52-.43h0c-.32-.84-.6-1.68-.85-2.54l-.1-.35-.09-.78-.04-1.04h0c.14-1.46.54-2.88,1.18-4.2l.62-1.29,1.22-.33,1.88.22s2.58-1.27,2.6-1.23c.06.16.75,4.93.21,5.35Z"/>
              <path d="M55.27,115.56l-2.25.47,2.1,1.2s.27,3.34-1.3,4.38l-2.08-.56s-2.67-3.67,1.19-9.75l2.59.96s.49,2.68-.23,3.3Z"/>
              <path class="cls-3" d="M52.34,121.42h0c-2.3-.05-4.04-.07-4.04-.07"/>
              <path class="cls-2" d="M54.15,121.46c.53.01,1.08.03,1.62.04,3.77.09,6.4,3.95,6.4,3.95"/>
              <path class="cls-2" d="M63.88,123.09c.04.06.09.12.14.18.6.72,1.66,1.29,3.54,1.32,0,0,2.77.38,5.72-.89,0,0,5.86-2.61,4.69-12.39"/>
              <path class="cls-3" d="M47.86,119.58c1.68,1.87,3.38,1.72,4.48,1.84,0,0,2.25-.03,2.25-.03"/>
              <path class="cls-3" d="M55.62,112.73s.03,8.63-1.47,8.73"/>
              <path d="M92.35,115.13c-1.78-.19-3.68-.89-5.58-2.43,0,0-5.05-4.15-5.16-11.1,0,0-.22-8.3,2.92-13.01,0,0,3.25-5.72,4.93-7.06,0,0,5.27-6.56,3.03-13.34l.05-.6s4.65,5.92,5.33,8.7l-.31,1.24-2.04,3.83-.52.65.88.25,1.45.18,1.77.36.61.48s4.23,10.93,3.08,23c-.5,5.29-5.16,9.42-10.44,8.86Z"/>
              <path class="cls-3" d="M92.12,67.36c.64,1.56,2.64,7.86-3.5,14.98-7.09,8.23-8.7,19.7-5.41,25.52,3.29,5.83,9.91,9.47,15.32,5.07"/>
              <path class="cls-3" d="M92.08,67.26c-.04-.1-.07-.17-.09-.21"/>
              <path class="cls-3" d="M91.98,67.04s-.02-.04-.02-.04c0,0,0,0,0,0"/>
              <path class="cls-3" d="M63.44,114.97s-.79,6.53.47,8.17"/>
              <path d="M75.67,97.35l-7.41.3h-.1c-2.71-2.42-7.36-2.75-7.36-2.75,5.18-.81,10.55,2.37,10.55,2.37-2.04-2.47-8.55-4.56-8.55-4.56,3.5.11,6.21.82,8.22,1.65h0c3.22,1.33,4.65,2.99,4.65,2.99Z"/>
              <path d="M68.38,98.02s-7.84,1.53-8.59,11.76c0,0,9.28-12.18,16.01-12.06l-7.41.3Z"/>
              <path class="cls-9" d="M79.91,110.96s-1.39.2-2.86.5c-1.06.22-2.09.55-3.08.99-1.36.6-3.57,1.57-5.49,2.39-1.22.52-2.32.98-2.99,1.23-.07.03-.14.05-.2.07,0,0-1.98.92-3.65-.78-.95-.97-1.27-2.41-.68-3.63.04-.08.08-.17.13-.25,0,0,.11,1.5.59,2.16,0,0,1.52-1.47,3.58-2.12l-1.15,1.17c.2-.11,3.44-1.9,5.67-2.6l-1.76,1.55c.19-.09,3.86-1.93,5.72-2.16l-2.31,1.27s3.78-1.46,6.01-1.26l-2.39,1.02s2.76-.42,4.84.46Z"/>
              <path class="cls-9" d="M58.05,110.67c-.79,2.09-3.37,2.84-5.23,1.6-2.93-1.96-3.63-2.01-3.63-2.01l.81-1.99.82.54c-.14-.37-.43-.68-.67-.89-.22-.2-.41-.31-.41-.31.17.02.34.06.52.13,1.35.5,2.98,2.14,2.98,2.14-.19-.59-1.67-1.58-1.67-1.58,1.79.55,3.71,2.26,3.71,2.26.07-.26-.9-1.53-.9-1.53,1.51.79,2.57,2.08,2.57,2.08.74.05,1.36-1.29,1.36-1.29-.07.32-.15.61-.25.87Z"/>
            </g>
            <g>
              <path d="M49.03,104.99s13.29-13.29,27.02-12.26c0,0-4.34,8.05,14.68,26.72,3.27,3.21,9.28,1.47,11.1-2.75,1.27-2.94,2.21-6.99,2.56-9.67l-.09-10.26-1.45-7.52,3.53.87,3.1,1.52,2.55,2.5-.22,2.99-3.21,10.43.27,5.7,1.81,5.42,4.76,7.14,3.64,6.68.87,7.88-2.93,8.31-6.52,11.19-8.75,10.11-6.54,5.41-7.21,2.55-10.08-3.14-8.64-4.58-5.07-5.08,3.63-2.23,7.32-2.96,9.71-2.9,2.45-2.66,3.06-2.74,2.16-4.14-5.15,14.75-6.36-2.03,5.64-4.99-.2-7.61-2.33-7.95-1.22-6.76-1.62-6.63-2.45-6.53-2.01-5.23-8.43-10.24-5.35-.95h-6.11l-4.89,1.31-8.76,10.4,2.78-6.06,2.95-4.01Z"/>
              <path class="cls-3" d="M41.08,121.93c1.84-5.41,7.36-18.11,15.83-18.7,10.88-.76,18.45.22,25.48,29.16.71,2.91,3.89,13.93,4.19,17.36.5,5.81,1,6.41-5.61,8.41-14.56,4.41-17.03,6.95-17.03,6.95l-16.38-11.18c-.41-.28-.7-.71-.82-1.19l-1.73-7.02"/>
              <path d="M51.74,105.84s-5.16,10.19-3.29,15.09c0,0-4.49-1.41-6.91,1.41l-.13-1.41,2.88-6.64,2.95-4.69,2.68-3.22,1.81-.54Z"/>
              <polygon points="45 145.71 46.71 152.11 49.8 150.7 50.8 148.09 50.74 145.61 48.86 145.27 45.91 145.47 45 145.71"/>
              <path class="cls-4" d="M102.32,89.33c1.85.14,3.48.43,4.75.91,6.28,2.39,5.27,6.46,4.37,8.35-.69,1.46-1.31,2.96-1.7,4.53-.99,3.88-1.87,10.27.94,15.56,4.36,8.22,14.72,14.99,5.36,31.93-9.36,16.94-16.13,20.92-20.9,24.8h0l-8.97,3.84-22.23-14.15"/>
              <path class="cls-4" d="M42.05,119.29c3.78-22.09,29.18-26.19,33.01-26.88h0s1.56-.3,2.12-.42"/>
              <path class="cls-4" d="M75.94,92.27c.61,2.42-2.84,10.64,14.3,27.12,3.29,3.17,8.76,2.07,10.82-2.01.02-.05-.04.04,0,0,1.52-1.39,6.56-16.82,1.78-28.13"/>
              <path class="cls-4" d="M75.87,91.97s.02.11.08.31"/>
            </g>
          </g>
        </g>
      </g>
      <path d="M85.55,172.19c12.74,4.5,26.5,6.23,39.96,4.98,6.54-.61,13.26-1.67,19.35-4.2,5.68-2.36,10.27-6.16,14.13-10.92,4.09-5.03,7.42-10.65,11.77-15.48,2.15-2.38-1.37-5.93-3.54-3.54-7.26,8.04-11.95,19.05-21.93,24.25-5.47,2.85-11.89,4.01-17.97,4.69-6.38.72-12.84.77-19.23.15-7.24-.7-14.37-2.35-21.22-4.77-1.27-.45-2.74.51-3.08,1.75-.38,1.38.47,2.62,1.75,3.08h0Z"/>
      <path d="M170.44,158.41c.6-3.85.2-7.57-.33-11.4-.51-3.71-.78-7.34-.46-11.08s1.01-7.34,1.62-10.99c.65-3.9,1.3-7.8,1.95-11.7.22-1.33-.35-2.69-1.75-3.08-1.2-.33-2.85.41-3.08,1.75-1.28,7.65-2.86,15.32-3.66,23.04-.38,3.72-.26,7.36.23,11.07s1.22,7.4.65,11.06c-.21,1.33.34,2.69,1.75,3.08,1.19.33,2.87-.4,3.08-1.75h0Z"/>
      <path d="M157.36,43.5c.36-.84.58-1.62.33-2.54-.18-.68-.6-1.34-1.13-1.8-1.1-.97-2.39-1.31-3.81-1.43-2.04-.18-4.17.41-5.94,1.4s-3.38,2.59-4.26,4.45c-.98,2.07-1.2,4.27-.79,6.51.72,3.95,3.95,7.55,7.99,8.21,4.42.72,8.84-1.28,10.49-5.58.94-2.45.67-5.36.11-7.87s-1.97-4.84-4.53-5.65c-1.25-.39-2.78.46-3.08,1.75-.31,1.36.41,2.65,1.75,3.08.61.19-.46-.25.09.04.17.09.22.26-.06-.07.09.1.22.26.33.33.24.16-.24-.45,0,.03.07.14.17.28.24.42.07.13.21.54.03.04.12.35.24.7.33,1.06.07.29.13.58.19.88.04.24.09.49.12.73-.06-.42,0,0,0,.08.03.41.07.83.08,1.24,0,.21,0,.41,0,.62,0,.1-.08.92-.01.43-.06.4-.18.79-.28,1.18-.02.06-.17.45-.01.08-.08.18-.17.35-.27.52-.08.14-.18.26-.26.4.22-.4.16-.18.04-.06-.13.14-.25.28-.39.41-.11.1-.56.44-.07.09-.26.18-.52.35-.79.5-.11.06-.23.11-.34.17.56-.28.02-.01-.11.03-.27.09-.55.17-.83.23-.16.03-.31.06-.47.09.64-.1.05-.02-.1-.01-.32.02-.64,0-.96-.01-.6-.01.34.12,0,0-.15-.05-.32-.06-.47-.1-.31-.07-.61-.19-.92-.28.49.16.19.09.07.02-.2-.11-.41-.21-.6-.34-.14-.09-.27-.19-.41-.28.41.26.13.11.04.02-.24-.23-.49-.45-.71-.69-.07-.07-.47-.59-.11-.11-.08-.11-.16-.22-.23-.33-.22-.33-.4-.69-.59-1.04-.06-.11-.16-.43.01.05-.06-.16-.12-.31-.17-.47-.1-.32-.19-.64-.26-.96-.03-.15-.09-.61-.02-.02-.01-.13-.03-.26-.04-.4-.03-.4-.01-.79,0-1.19.02-.46,0-.02-.02.07.03-.2.07-.39.12-.58.08-.32.18-.64.3-.95-.21.52.15-.25.24-.4s.18-.28.27-.43c.34-.54-.33.34.1-.14.27-.3.56-.58.85-.86.33-.31.05-.05-.03,0,.19-.14.39-.28.59-.4.32-.2.65-.36.98-.53-.53.27.05-.02.16-.05.19-.07.39-.13.58-.18.13-.04.26-.07.39-.1.13-.03.26-.05.4-.08-.3.04-.35.04-.16.02.37-.02.74-.05,1.11-.03.12,0,.77.1.14,0,.2.03.4.1.6.13-.68-.11.09-.05,0,.01.24.16.24.16,0,0-.45-.48-.5-1.1-.14-1.86-.52,1.2-.4,2.74.9,3.42,1.08.57,2.87.39,3.42-.9h0Z"/>
      <path d="M167.5,52.98c-.16-1-.25-1.58-.34-2.42-.11-.94-.2-1.88-.27-2.82-.14-1.88-.19-3.77-.18-5.66l-4.66,1.26c2.23,3.65,4.61,7.21,7.13,10.66.98,1.34,2.64,1.66,3.93.51,1.91-1.71,2.67-4.23,3.17-6.66.59-2.85,1.01-5.74,1.3-8.64.13-1.31-1.24-2.56-2.5-2.5-1.47.07-2.36,1.1-2.5,2.5-.24,2.42-.55,4.49-1.06,7.04-.2.98-.41,1.97-.74,2.91-.05.14-.1.28-.16.41.1-.22.11-.26.03-.09-.13.22-.23.45-.36.67-.04.07-.45.59-.11.2-.19.22-.39.43-.61.62l3.93.51c-2.52-3.45-4.9-7.01-7.13-10.66-1.29-2.11-4.64-1.24-4.66,1.26-.04,4.1.31,8.18.97,12.22.21,1.29,1.89,2.13,3.08,1.75,1.4-.45,1.97-1.69,1.75-3.08h0Z"/>
      <path d="M140.68,63.03c-.15,1.85.07,3.79.61,5.56.61,1.98,1.59,3.72,2.87,5.33.35.45,1.22.76,1.77.73.64-.03,1.34-.23,1.77-.73,2.53-2.92,4.33-6.45,5.01-10.26.12-.68.11-1.31-.25-1.93-.3-.52-.9-1.01-1.49-1.15-1.22-.28-2.83.37-3.08,1.75-.14.81-.33,1.6-.58,2.38-.12.39-.26.78-.4,1.16-.04.1-.08.19-.11.29-.12.31.02-.08.07-.17-.11.2-.19.42-.29.63-.35.74-.75,1.45-1.2,2.14-.22.34-.46.68-.7,1.01-.05.06-.27.36-.04.05s0-.01-.04.05c-.14.18-.29.35-.44.53h3.54c.48.61.03.04-.06-.1-.12-.16-.23-.33-.33-.5-.21-.34-.41-.69-.59-1.04-.09-.18-.17-.36-.26-.54-.21-.43.2.52.02.04-.14-.38-.28-.75-.39-1.14s-.21-.77-.29-1.17c-.03-.15-.05-.3-.08-.44-.04-.27-.03-.2.03.22-.01-.1-.02-.2-.03-.3-.08-.8-.08-1.6-.02-2.4.11-1.31-1.23-2.56-2.5-2.5-1.45.06-2.38,1.1-2.5,2.5h0Z"/>
      <path d="M164.38,67.08c.23-2.24-2.02-4.14-4.14-4.12-2,.02-3.52,1.32-4.6,2.88-1.95,2.81-2.46,6.69-.88,9.78,1.43,2.79,4.81,4.41,7.86,3.78,3.28-.67,5.26-4.05,5.19-7.23-.04-1.88-.73-3.73-1.74-5.3-1.09-1.7-2.72-3.98-5-3.85-1.3.07-2.56,1.1-2.5,2.5.06,1.29,1.1,2.58,2.5,2.5.43-.02-.15-.03-.2-.04l-.31-.12c.18.12.18.12,0,0l-.13-.09c.06.06.12.11.18.18.08.08.15.17.23.25.14.16.47.44.54.65-.01-.04-.33-.46-.05-.06.11.15.22.3.32.46.28.42.51.85.74,1.29s-.05-.07-.03-.09c0,0,.12.3.13.34.1.29.19.58.26.88,0,.01.09.32.07.36.11-.2-.05-.5-.02-.09.01.21.02.42,0,.63,0,.1-.07.31-.03.39-.02-.06.13-.61.02-.2-.07.26-.13.51-.21.76-.1.34-.07-.12.08-.16-.02,0-.14.29-.14.28-.05.1-.35.44-.33.52-.04-.13.35-.4.1-.15-.07.07-.14.15-.21.22-.07.06-.34.41-.1.1.21-.28,0,0-.13.06,0,0-.25.11-.27.14.14-.24.52-.17.13-.07-.09.02-.77.17-.29.09s-.25-.02-.38-.02c-.22,0-.28-.14.24.05-.13-.05-.29-.05-.42-.09-.15-.04-.41-.19-.56-.18.29-.02.45.22.19.08-.09-.05-.18-.09-.26-.14s-.17-.1-.25-.15-.4-.35-.11-.06c.27.27.04.03-.04-.04-.09-.08-.18-.17-.27-.25s-.16-.2-.25-.27c-.24-.2.27.42.12.16-.11-.19-.23-.38-.34-.57s-.18-.13.05.14c-.05-.06-.1-.28-.12-.33-.08-.24-.08-.64-.2-.86.04.06.04.59.03.14,0-.12-.01-.24-.02-.35,0-.24.01-.47.02-.71.02-.49-.03.11-.03.13-.03-.1.06-.33.08-.44.06-.26.13-.53.21-.78.05-.14.1-.28.15-.43.1-.29-.21.43,0,.01.13-.27.27-.54.43-.8.06-.1.13-.2.19-.3.04-.07.09-.14.14-.2.11-.15.06-.09-.14.18.12-.08.52-.46.57-.59-.03.07-.49.3-.12.1.16-.08.61-.25-.02-.02.18-.07.4-.02-.2,0,.47-.01-.57-.15-.08-.02.16.04.39.19-.18-.08.39.18-.3-.28-.1-.08l.05.05c-.18-.17-.3-.38-.36-.63.14.43,0-.6-.04-.11-.13,1.31,1.25,2.56,2.5,2.5,1.47-.07,2.36-1.1,2.5-2.5h0Z"/>
      <path d="M166.91,66.48c-.05,3.53.67,9.06,5.03,9.65,2.23.3,4.11-1.13,5.29-2.9,1.04-1.56,1.5-3.52,1.67-5.37.21-2.19-.28-4.32-1.14-6.32-.23-.53-.96-1-1.49-1.15-.6-.16-1.4-.09-1.93.25s-1,.86-1.15,1.49c-.16.7-.03,1.27.25,1.93-.27-.64.03.12.07.25.06.17.11.35.16.52.06.2.1.41.15.62s.02.79.04.14c-.02.42.08.85.08,1.27,0,.36-.03.73-.05,1.09-.03.28-.03.24.02-.12-.02.12-.04.24-.06.36-.03.18-.07.36-.12.53-.1.41-.24.81-.38,1.21-.19.52.21-.38-.04.07-.1.19-.2.38-.31.57l-.09.14c-.15.22-.12.18.1-.11,0,.1-.31.35-.39.43-.44.43.35-.18-.05.06-.13.08-.28.14-.4.23.37-.15.43-.18.17-.1-.21.04-.19.04.04,0,.24-.03.25-.04.04-.03.41.07.48.08.21.02-.49-.14.47.24.06.02-.22-.15-.16-.1.16.13-.07-.07-.14-.13-.2-.21.12,0,.34.52.04.03-.09-.15-.17-.31-.25-.47-.08-.17-.04-.09.1.24-.04-.1-.07-.19-.1-.29-.05-.15-.09-.29-.13-.44-.12-.44-.21-.89-.28-1.35-.02-.13-.04-.27-.06-.4l.04.26c-.07-.25-.06-.56-.07-.81-.03-.48-.04-.95-.03-1.43.02-1.31-1.16-2.56-2.5-2.5s-2.48,1.1-2.5,2.5h0Z"/>
      <path d="M186.11,60.46c-.92-1.07-2.52-1.24-3.76-.71-1.32.56-2.16,1.86-2.12,3.31s.84,2.59,1.96,3.39c.82.58,1.87.83,2.83,1.08s1.86.46,2.79.66c.44.09.88.17,1.32.26.18.04.37.07.55.12.08.02.16.04.23.06.06.02.53.2.15.03-.4-.18-.02-.02-.01,0l.13.08-.25-.21s.13.13.17.17c.24.21-.26-.4-.11-.12.13.24-.09-.23-.08-.24,0,0,.1.33.1.31.02.08.03.16.05.24.08.28-.02-.61-.02-.11,0,.18,0,.36,0,.54-.04.57.11-.39,0,.02-.04.15-.08.3-.12.44-.11.39.05-.11.09-.17-.06.08-.09.19-.13.27s-.11.17-.15.26c-.15.29.03-.06.13-.14-.16.14-.32.34-.48.49-.18.18.19-.17.2-.16-.02-.01-.31.18-.33.2-.2.14.22-.1.25-.09-.07-.02-.29.1-.36.12s-.15.04-.22.05c-.44.11.44,0,.13-.02-.12,0-.79-.04-.35.01.53.06-.56-.24-.1-.02.34.16.09.04.02,0-.13-.08-.26-.15-.39-.24-1.07-.75-2.83-.23-3.42.9-.68,1.28-.25,2.61.9,3.42,1.77,1.24,4.2,1.16,6.06.19s2.98-3.07,3.24-5.15-.59-4.44-2.56-5.42c-.91-.45-1.84-.61-2.81-.81-.9-.18-1.81-.38-2.7-.61-.5-.12-1-.25-1.49-.39-.11-.03-.22-.06-.33-.1-.07-.02-.45-.15-.1-.03s0-.03-.08-.06c-.26-.1.28.27.11.1-.22-.22.25.45.11.17-.05-.09-.15-.38-.03-.03.06.19.11.34.11.55,0-.35-.08.32-.12.43-.07.18-.18.36-.32.51-.14.16-.31.27-.51.33-.21.08-.26.1-.13.06.25-.07-.43.06-.38.06-.33.02-.61-.08-.86-.29-.41-.3-.52-.35-.34-.15.85,1,2.67.94,3.54,0,.97-1.06.91-2.47,0-3.54h0Z"/>
      <path d="M142.21,88.72c.1,4.25,1.15,8.37,3.03,12.17.82,1.65,3.49,1.62,4.32,0,1.94-3.79,3.59-7.74,4.92-11.79.41-1.24-.47-2.79-1.75-3.08-1.37-.31-2.64.41-3.08,1.75-.62,1.89-1.31,3.76-2.07,5.59-.04.1-.08.19-.12.29.12-.28.12-.28,0-.02-.1.22-.19.45-.29.67-.2.45-.4.89-.6,1.33-.43.92-.87,1.83-1.33,2.73h4.32c-.21-.42-.44-.84-.6-1.28.2.55,0-.03-.06-.15-.1-.25-.19-.5-.29-.76-.3-.82-.55-1.66-.76-2.52s-.45-1.72-.5-2.58c.04.65,0-.1-.02-.24-.02-.23-.05-.47-.06-.7-.04-.47-.06-.94-.07-1.41-.03-1.31-1.13-2.56-2.5-2.5s-2.53,1.1-2.5,2.5h0Z"/>
      <path d="M157.67,90.92c-.02.96-.09,1.92-.2,2.87.07-.56-.02.09-.04.21-.04.26-.09.51-.13.76-.09.47-.19.94-.3,1.41-.23.93-.51,1.86-.83,2.76-.4,1.1-.85,2.14-.52,3.34.69,2.53,3.86,2.94,6.06,3.21,2.02.25,4.05.1,6.03-.34,1.28-.28,2.15-1.83,1.75-3.08-.43-1.34-1.71-2.05-3.08-1.75-.21.05-.42.09-.63.13-.13.02-.77.13-.19.04-.35.06-.72.08-1.08.1-.79.04-1.58,0-2.37-.06-.71-.06.51.1-.19-.02-.21-.04-.43-.07-.64-.12-.35-.07-.7-.16-1.05-.26-.21-.06-.41-.13-.62-.19-.2-.07-.21-.07,0,0,.16.05.29.13.4.26l.5,1.13c-.05.32-.06.39,0,.2.08-.17.13-.38.2-.56,1.25-3.21,1.89-6.64,1.96-10.08.03-1.31-1.17-2.56-2.5-2.5s-2.47,1.1-2.5,2.5h0Z"/>
      <path d="M157.94,98.7c2.69-.17,5.36-.63,7.93-1.44.61-.19,1.16-.59,1.49-1.15s.45-1.33.25-1.93c-.4-1.25-1.74-2.17-3.08-1.75-1.66.52-3.36.9-5.08,1.14l.66-.09c-.73.1-1.45.17-2.18.21-1.3.08-2.56,1.09-2.5,2.5.06,1.29,1.1,2.59,2.5,2.5h0Z"/>
      <path d="M161.73,89.04c.28-.15.57-.28.86-.41l-.6.25c.98-.41,2.01-.69,3.06-.83l-.66.09c.67-.08,1.34-.11,2.01-.09,1.31.05,2.56-1.19,2.5-2.5-.06-1.4-1.1-2.44-2.5-2.5-2.5-.1-4.98.52-7.19,1.67-1.16.6-1.6,2.32-.9,3.42.76,1.18,2.18,1.54,3.42.9h0Z"/>
      <path d="M170.17,88.04c-.71,4.34-.03,8.78,2.17,12.62.64,1.12,1.37,2.24,2.61,2.76,1.4.59,2.88.2,4.04-.7,1.74-1.34,2.76-3.69,3.28-5.77.61-2.41.6-4.93-.02-7.33-.33-1.27-1.81-2.16-3.08-1.75s-2.1,1.72-1.75,3.08c.07.26.13.52.18.79.03.13.05.27.07.4-.04-.33-.04-.35-.01-.06.04.47.07.94.06,1.41,0,.27-.02.54-.04.81-.01.14-.03.76,0,.14-.02.46-.17.94-.29,1.39-.07.26-.15.52-.24.77-.04.11-.38.91-.12.34-.2.43-.41.85-.65,1.26-.07.12-.14.23-.21.34-.15.22-.13.2.06-.07-.02.09-.33.39-.39.4.27-.2.29-.22.07-.07-.25.13-.2.11.13-.05.36-.1.79-.01,1.08.22.11.07.2.16.25.28-.08-.11-.15-.22-.23-.33-.15-.23-.3-.47-.44-.7-.24-.42-.47-.85-.67-1.28-.06-.13-.11-.25-.17-.38.12.28.12.29.02.02-.07-.19-.15-.39-.21-.58-.17-.49-.31-.99-.44-1.49s-.25-1.01-.29-1.52c.06.61,0-.02,0-.16-.03-.27-.04-.55-.06-.83-.02-.48-.02-.97,0-1.45.01-.28.04-.55.06-.83.03-.29.03-.27-.01.05.02-.14.04-.27.06-.41.21-1.29-.33-2.75-1.75-3.08-1.2-.27-2.85.37-3.08,1.75h0Z"/>
      <path d="M187.7,91.22c2.91-.31,5.84-.41,8.77-.31,1.31.05,2.56-1.18,2.5-2.5-.06-1.39-1.1-2.45-2.5-2.5-2.93-.1-5.86,0-8.77.31-.68.07-1.27.23-1.77.73-.43.43-.76,1.15-.73,1.77.06,1.24,1.11,2.65,2.5,2.5h0Z"/>
      <path d="M189.27,94.05v7.52c0,1.31,1.15,2.56,2.5,2.5s2.5-1.1,2.5-2.5v-7.52c0-1.31-1.15-2.56-2.5-2.5s-2.5,1.1-2.5,2.5h0Z"/>
      <path d="M133.23,36.43c-1.35,21.26-1.66,42.58-.92,63.86.09,2.51-.05,5.19.44,7.66s2.38,3.99,4.67,4.81c4.6,1.64,9.82,1.58,14.64,1.63,10.54.1,21.09.19,31.63.29,5.17.05,10.49.44,15.61-.43,2.42-.41,5.05-1.18,5.89-3.77.35-1.06.36-2.27.46-3.38.12-1.38.24-2.76.34-4.13.8-10.46,1.05-20.97.75-31.45s-1.12-20.8-2.48-31.12c-.62-4.7-.5-10.73-5.5-13-4.49-2.04-9.51-2.84-14.38-3.25s-10.02-.39-15.02-.44c-5.39-.06-10.78-.09-16.16-.11s-10.45-.22-15.64,0c-2.38.1-4.57.97-5.65,3.24s-1.28,4.93-1.43,7.32c-.16,2.57.05,5.12.46,7.65.22,1.33,1.87,2.08,3.08,1.75,1.42-.39,1.96-1.74,1.75-3.08-.36-2.24-.42-4.53-.25-6.79.08-1.02.23-2.03.43-3.04.13-.62.17-1.67.8-1.98.51-.25,1.49-.09,2.03-.09,1.24,0,2.49,0,3.73,0,2.49,0,4.97,0,7.46,0,9.71.02,19.45-.04,29.16.27,4.41.14,8.83.47,13.12,1.58,1.64.43,4.24.85,5.44,2.18.5.56.63,1.42.77,2.14.23,1.21.38,2.43.55,3.65,1.34,9.52,2.19,19.12,2.6,28.73s.36,19.2-.15,28.78c-.13,2.44-.29,4.87-.47,7.3-.09,1.14-.18,2.27-.28,3.4-.06.65-.12,1.3-.18,1.94,0,.09,0,.12-.04.24-.14.47.19-.11-.03.04-.64.42-1.95.51-2.7.63-1.14.17-2.3.23-3.45.26-2.3.07-4.6,0-6.9-.02-9.8-.09-19.6-.18-29.41-.27-4.73-.04-9.53.13-14.23-.42-.99-.12-1.98-.29-2.96-.52-.84-.19-1.92-.34-2.64-.85-.48-.34-.55-.74-.6-1.33-.12-1.26-.11-2.54-.16-3.8-.75-19.55-.61-39.13.41-58.67.13-2.47.27-4.95.43-7.42.2-3.21-4.8-3.2-5,0h0Z"/>
      <path d="M168.75,142.42c1.24-1.21,2.49-2.43,3.84-3.52.05-.04.47-.37.19-.15.17-.13.34-.25.51-.37.34-.24.69-.48,1.05-.7s.72-.43,1.09-.62c.19-.1.37-.18.56-.28.45-.22-.19.06.33-.14l-2.43-4.18c-1.27,1.38-2.61,2.68-4.02,3.91s-2.55,2.1-4.16,3.2c-.89.61-1.5,1.72-1.15,2.82.33,1.01,1.29,1.89,2.41,1.84,2.79-.15,5.57-.29,8.36-.44l-1.77-4.27c-.55.47-.52.45-1.11.86-.49.34-1,.66-1.52.95s-1.06.56-1.6.81c-.45.21.16-.04-.35.14-.32.12-.64.24-.96.34-1.19.4-1.96,1.47-1.79,2.74s1.2,2.15,2.46,2.17c3.87.04,7.92.36,11.53.92v-4.82c-4.08,1.38-7.79,1.95-12.03,1.84-1.24-.03-2.3.98-2.46,2.17-.17,1.27.6,2.34,1.79,2.74,1.96.67,3.97,1.06,6.03,1.29l-.66-4.91c-.36.08-.72.16-1.09.21.3-.04-.61.04-.71.04-.37.02-.74.02-1.11,0-.1,0-1.01-.08-.71-.04l1.1,4.18c2.72-3.02,2.02-6.89.68-10.35-.47-1.22-1.7-2.19-3.08-1.75-1.18.38-2.25,1.77-1.75,3.08.24.61.47,1.22.67,1.85.11.36.21.71.29,1.08.04.18.07.36.1.55-.02-.15-.03-.15-.01,0,.02.28,0,.55,0,.82-.03.3-.03.31,0,.04-.02.12-.05.23-.08.34-.03.13-.33.8-.11.38-.07.14-.15.27-.23.4.17-.19.15-.18-.04.04-.61.67-.89,1.54-.64,2.43.21.75.92,1.63,1.75,1.75,2.13.29,4.17.26,6.28-.21,1.21-.27,1.95-1.57,1.79-2.74-.18-1.32-1.2-2.03-2.46-2.17l-.27-.03c.16.03.16.02-.02,0-.18-.03-.36-.06-.54-.09-.45-.08-.9-.17-1.35-.27-.85-.2-1.69-.44-2.52-.72l-.66,4.91c4.52.11,9.08-.57,13.36-2.02,1.01-.34,1.89-1.28,1.84-2.41-.05-1.01-.73-2.24-1.84-2.41-4.26-.66-8.55-1.05-12.86-1.1l.66,4.91c2.88-.96,5.44-2.43,7.75-4.39,1.64-1.39.33-4.38-1.77-4.27-2.79.15-5.57.29-8.36.44l1.26,4.66c3.34-2.29,6.44-4.92,9.19-7.9.73-.79,1-2.08.39-3.03-.56-.87-1.78-1.56-2.82-1.15-3.85,1.51-6.85,4.21-9.77,7.06-.94.92-.99,2.63,0,3.54s2.54.98,3.54,0h0Z"/>
    </g>
  </g>
</svg>